<?xml version="1.0" encoding="utf-8"?>
<!-- Generator: Adobe Illustrator 25.4.1, SVG Export Plug-In . SVG Version: 6.00 Build 0)  -->
<svg version="1.1" id="Capa_1" xmlns="http://www.w3.org/2000/svg" xmlns:xlink="http://www.w3.org/1999/xlink" x="0px" y="0px"
	 width="86.2px" height="65.9px" viewBox="0 0 86.2 65.9" style="enable-background:new 0 0 86.2 65.9;" xml:space="preserve">
<style type="text/css">
	.st0{fill:url(#SVGID_1_);}
	.st1{fill-rule:evenodd;clip-rule:evenodd;}
</style>
<g>
	<g>
		<linearGradient id="SVGID_1_" gradientUnits="userSpaceOnUse" x1="43.0985" y1="65.8501" x2="43.0985" y2="-9.094947e-13">
			<stop  offset="0" style="stop-color:#ADADAD"/>
			<stop  offset="1" style="stop-color:#E6E6E6"/>
		</linearGradient>
		<path class="st0" d="M55.3,65.9H30.9C13.8,65.9,0,52,0,35v-4.1C0,13.8,13.8,0,30.9,0h24.4c17.1,0,30.9,13.8,30.9,30.9V35
			C86.2,52,72.4,65.9,55.3,65.9z"/>
	</g>
	<g>
		<path class="st1" d="M60.8,44.1c0.1,0,0.2,0,0.4-0.1c0.6-0.3,1.1-0.4,1.7-0.4c1.6,0,2.6,1,2.6,2.6v4.8c0,0.1-0.1,0.2-0.2,0.2h-0.9
			c-0.1,0-0.2-0.1-0.2-0.2v-4.7c0-1.1-0.5-1.6-1.7-1.6c-0.4,0-0.7,0.1-1,0.2c-0.4,0.2-0.6,0.4-0.6,0.8v5.3c0,0.1-0.1,0.2-0.2,0.2
			h-0.9c-0.1,0-0.2-0.1-0.2-0.2V41c0-0.1,0.1-0.2,0.2-0.2h0.9c0.1,0,0.2,0.1,0.2,0.2L60.8,44.1L60.8,44.1L60.8,44.1z"/>
		<path class="st1" d="M47.2,47.6c0,1.5,1,2.6,2.4,2.6c0.5,0,1.2-0.2,1.8-0.5l0.1-0.1c0.1,0,0.1-0.1,0.2-0.1c0.1,0,0.2,0.1,0.2,0.2
			v0.6c0,0.2,0,0.3-0.3,0.4c-0.6,0.3-1.5,0.5-2.2,0.5c-2.2,0-3.6-1.5-3.6-3.8c0-2.4,1.3-3.9,3.4-3.9c1.9,0,3.2,1.3,3.2,3.4v0.4
			c0,0.1-0.1,0.2-0.2,0.2L47.2,47.6L47.2,47.6L47.2,47.6z M51,46.3c0-1.1-0.8-1.8-1.9-1.8c-1.1,0-1.9,0.8-1.9,1.9H51
			C51,46.4,51,46.3,51,46.3L51,46.3z"/>
		<path class="st1" d="M58.6,49.6c0.1,0,0.2,0.1,0.2,0.3v0.6c0,0.2,0,0.3-0.2,0.3c-0.5,0.3-1.4,0.4-2.1,0.4c-2.3,0-3.7-1.4-3.7-3.8
			c0-2.4,1.5-3.9,3.9-3.9c0.6,0,1.3,0.1,1.9,0.4c0.2,0.1,0.3,0.1,0.3,0.3v0.7c0,0.1-0.1,0.3-0.2,0.3c-0.1,0-0.1,0-0.2-0.1
			c-0.6-0.3-1.1-0.5-1.7-0.5c-1.5,0-2.4,1-2.4,2.8c0,1.8,0.9,2.8,2.4,2.8c0.5,0,1.1-0.1,1.6-0.4l0.1,0
			C58.4,49.7,58.5,49.6,58.6,49.6L58.6,49.6z"/>
		<path class="st1" d="M41.2,44.7c-0.1,0-0.2-0.1-0.2-0.2v-0.6c0-0.1,0.1-0.2,0.2-0.2H42v-1.8c0-0.1,0.1-0.2,0.2-0.2h0.9
			c0.1,0,0.2,0.1,0.2,0.2v1.8h2.1c0.1,0,0.2,0.1,0.2,0.2v0.6c0,0.1-0.1,0.2-0.2,0.2h-2.1V49c0,0.8,0.3,1.2,1.1,1.2
			c0.3,0,0.5-0.1,0.8-0.2l0.2-0.1c0.1,0,0.1,0,0.2,0c0.1,0,0.2,0.1,0.2,0.2v0.5c0,0.1,0,0.2-0.2,0.3c-0.4,0.2-1,0.3-1.5,0.3
			c-1.3,0-2-0.7-2-1.9v-4.6H41.2L41.2,44.7z"/>
		<path class="st1" d="M38.6,50.9v-7c0-0.1,0.1-0.2,0.2-0.2h0.9c0.1,0,0.2,0.1,0.2,0.2v7c0,0.1-0.1,0.2-0.2,0.2h-0.9
			C38.7,51.1,38.6,51,38.6,50.9L38.6,50.9z M39.3,40.7c0.5,0,0.8,0.3,0.8,0.8c0,0.5-0.3,0.8-0.8,0.8c-0.5,0-0.8-0.3-0.8-0.8
			C38.4,41,38.7,40.7,39.3,40.7L39.3,40.7z"/>
		<path class="st1" d="M35.5,50.7c-0.5,0.3-1.1,0.4-1.6,0.4c-2.1,0-3.5-1.5-3.5-3.7c0-2.3,1.5-3.8,3.7-3.8c0.4,0,0.9,0.1,1.2,0.2
			c0.1,0,0.2,0.1,0.4,0.2c0.1,0,0.1,0.1,0.2,0.1l0.1,0v-0.1c0-0.2,0.1-0.3,0.2-0.3h0.8c0.1,0,0.2,0.1,0.2,0.2v7.4
			c0,1.9-1.2,2.9-3.5,2.9c-0.8,0-1.8-0.2-2.5-0.4c-0.3-0.1-0.4-0.2-0.4-0.4v-0.6c0-0.1,0.1-0.3,0.2-0.3c0.1,0,0.1,0,0.2,0.1l0.2,0.1
			c0.6,0.3,1.5,0.5,2.2,0.5c0.7,0,1.3-0.1,1.7-0.4c0.4-0.3,0.5-0.7,0.5-1.4v-0.7C35.7,50.6,35.6,50.7,35.5,50.7L35.5,50.7z
			 M35.5,44.9c-0.3-0.2-0.8-0.3-1.3-0.3c-1.5,0-2.4,1-2.4,2.8c0,1.6,0.9,2.7,2.4,2.7c0.4,0,0.9-0.1,1.2-0.3c0.3-0.1,0.3-0.3,0.3-0.6
			v-3.8C35.8,45.2,35.7,45.1,35.5,44.9L35.5,44.9z"/>
		<path class="st1" d="M26.2,43.6c2.2,0,3.6,1.5,3.6,3.9c0,2.4-1.4,3.9-3.5,3.9c-2.2,0-3.6-1.5-3.6-3.9C22.7,45,24,43.6,26.2,43.6
			L26.2,43.6z M24.7,49.7c0.3,0.4,0.9,0.6,1.5,0.6c1.4,0,2.1-0.9,2.1-2.9c0-1.9-0.7-2.9-2.1-2.9c-1.4,0-2.1,0.9-2.1,2.9
			C24.1,48.6,24.3,49.2,24.7,49.7L24.7,49.7z"/>
		<path class="st1" d="M22.8,50c0.1,0,0.2,0.1,0.2,0.2v0.7c0,0.1-0.1,0.2-0.2,0.2H18c-0.1,0-0.2-0.1-0.2-0.2v-9.6
			c0-0.1,0.1-0.2,0.2-0.2h1.1c0.1,0,0.2,0.1,0.2,0.2V50H22.8L22.8,50z"/>
		<path class="st1" d="M50.3,16.2c2.3-1.2,4-2.9,3.8-3.7c-0.2-0.8-1.2-1.1-2.2-0.7c-1,0.4-2.7,2-3.8,3.7C47,17.1,48,17.4,50.3,16.2
			L50.3,16.2z"/>
		<path class="st1" d="M53.3,25.2c1.3,0.6,3,0.6,4.3,0.1c1.3-0.5,1.8-1.2,1-1.6c-1-0.4-3.9-0.5-6-0.3C51,23.7,51.6,24.5,53.3,25.2
			L53.3,25.2z"/>
		<path class="st1" d="M50.2,33.3c1.5,1.8,3.7,3.5,4.8,3.6c0.9-0.1,0.4-1.6-0.7-2.9c-1-1.2-2.7-2.3-3.9-2.6
			C49.1,31,48.9,31.7,50.2,33.3L50.2,33.3z"/>
		<path class="st1" d="M43.7,27.9c-0.6,0-1.3-0.5-1.3-0.3c-0.2,0.4,0.7,1.7,1.9,1.3c0.3-0.1,0.8-0.4,0.9-0.5
			C46.3,27.5,44.6,28,43.7,27.9L43.7,27.9z M45.1,22.2c-0.8,0.1-1.4,0.5-1.8,1c-0.4,0.5-1.1,1.3-0.7,2.1c0,0.1,0.3,0.5,0.9,0.6
			c1.3,0.4,2.8,0.2,3.5-1c0.1-0.2,0.3-0.5,0.2-0.9c-0.1-0.8-0.6-1.1-0.8-1.3C46.1,22.4,45.7,22.1,45.1,22.2L45.1,22.2z M42.4,21.8
			c-1.6,0.2-2.3,1.4-1.7,3.2c0,0.1,0.2,0.1,0.2-0.1c0-0.2,0.1-0.3,0.1-0.6c0.1-0.4,0.3-0.9,0.5-1.1c0.4-0.7,1.2-0.9,1.6-1.4
			C43.4,21.6,42.7,21.7,42.4,21.8L42.4,21.8z M41.2,20.1c0.5-0.2,0.8-0.2,1.4-0.3c1.2-0.2,4.2,0.2,5.1,0.6c0.4,0.2,0.8,0.4,1.1,0.7
			c0.8,0.6,1.6,1.2,1.4,2.8c-0.3,1.7-1.5,2.7-2.6,3.7c-1.1,1-2.2,1.9-3.9,2.3c-0.7,0.2-2.4-0.1-2.8-0.9c-0.2-0.3-0.3-0.6-0.5-0.9
			c-0.1-0.2-0.1-0.4-0.3-0.6c-0.1-0.1-0.4-0.3-0.6-0.4c-0.7-0.4-1.4-0.8-1.8-1.6c-0.3-0.5-0.7-1.9-0.4-2.6c0.3-0.8,0.9-1.2,1.5-1.7
			c0.3-0.2,0.7-0.5,1-0.6C40.3,20.5,40.8,20.3,41.2,20.1L41.2,20.1z"/>
		<path class="st1" d="M30,14.8c-2.6,2.6-5.2,6.8-4.4,11.8c0.4,3,2,5.2,3.4,6.8c1.8,2,4.6,3.9,7,3.5c1.1-0.2,2-1.2,2.4-1.9
			c1.6-2.9-1.7-6.8-2-8.2c-0.7-1.9-0.6-2.9-0.5-4.7c0.2-2.9,2.3-6.2,2.8-7c0.5-0.9,1.1-1.6,1.5-2.3c0.1-0.2,0.4-0.6,0.3-1
			c-0.1-0.5-0.8-0.8-1.4-0.8c-1-0.1-1.8,0-2.5,0.2c-1.8,0.4-3.3,1.1-4.2,1.7C31.5,13.4,30.7,14.1,30,14.8L30,14.8z"/>
	</g>
</g>
</svg>
