<?xml version="1.0" encoding="utf-8"?>
<!-- Generator: Adobe Illustrator 25.4.1, SVG Export Plug-In . SVG Version: 6.00 Build 0)  -->
<svg version="1.1" id="Layer_1" xmlns="http://www.w3.org/2000/svg" xmlns:xlink="http://www.w3.org/1999/xlink" x="0px" y="0px"
	 width="224px" height="112.4px" viewBox="0 0 224 112.4" style="enable-background:new 0 0 224 112.4;" xml:space="preserve">
<style type="text/css">
	.st0{fill:#EDA426;stroke:#000000;stroke-width:0.75;stroke-miterlimit:10;}
	.st1{fill:#775213;}
	.st2{fill:#268AED;stroke:#000000;stroke-width:0.75;stroke-miterlimit:10;}
	.st3{fill:#134577;}
	.st4{fill:#91ED26;stroke:#000000;stroke-width:0.75;stroke-miterlimit:10;}
	.st5{fill:#497713;}
	.st6{fill:#ED2635;stroke:#000000;stroke-width:0.75;stroke-miterlimit:10;}
	.st7{fill:#77131B;}
	.st8{fill:#E6E6E6;}
	.st9{fill:#ADADAD;}
	.st10{display:none;}
	.st11{display:inline;}
</style>
<g>
	<circle class="st0" cx="83.8" cy="27.2" r="26"/>
	<g>
		<g>
			<path class="st1" d="M100.1,15.2L88,30.3v8.9h-7.8v-8.9L67.5,15.2h8.7L84,25.8l7.3-10.6H100.1 M103.2,13.7h-3.1h-8.8h-0.8
				l-0.4,0.7L84,23.2l-6.5-8.9L77,13.7h-0.8h-8.7h-3.2l2.1,2.5l12.3,14.7v8.4v1.5h1.5H88h1.5v-1.5v-8.4l11.7-14.7L103.2,13.7
				L103.2,13.7z"/>
		</g>
	</g>
</g>
<g>
	<circle class="st2" cx="27.2" cy="27.2" r="26"/>
	<g>
		<g>
			<path class="st3" d="M43.3,15.2L31.5,27l12.2,12.3h-9.3l-7.3-8.3l-7.3,8.3h-9.1l12-12.1L11.2,15.2h9.3l6.7,7.9l7-7.9H43.3
				 M46.9,13.7h-3.6h-9.1h-0.7L33,14.2l-5.8,6.6l-5.6-6.6l-0.4-0.5h-0.7h-9.3H7.6l2.5,2.5l10.6,10.9l-11,11.1l-2.5,2.6h3.6h9.1h0.7
				l0.4-0.5l6.1-7.1l6.2,7.1l0.4,0.5h0.7h9.3h3.6l-2.5-2.6L33.6,27l10.7-10.7L46.9,13.7L46.9,13.7z"/>
		</g>
	</g>
</g>
<g>
	<circle class="st4" cx="196.9" cy="27.2" r="26"/>
	<g>
		<g>
			<path class="st5" d="M201.4,15.2l13.2,24.1h-8l-2.5-4.9h-14.3l-2.6,4.9h-8l13.5-24.1H201.4 M192,30.3h9.9l-5-9.4L192,30.3
				 M202.3,13.7h-0.9h-8.7h-0.9l-0.4,0.8l-13.5,24.1l-1.3,2.2h2.6h8h0.9l0.4-0.8l2.1-4.1h12.4l2.1,4l0.4,0.8h0.9h8h2.5l-1.2-2.2
				l-13.2-24.1L202.3,13.7L202.3,13.7z M194.5,28.8l2.5-4.7l2.5,4.7H194.5L194.5,28.8z"/>
		</g>
	</g>
</g>
<g>
	<circle class="st6" cx="140.4" cy="27.2" r="26"/>
	<g>
		<g>
			<path class="st7" d="M142.1,15.2c3.8,0,6.8,0.6,9,1.7c2.3,1.3,3.4,2.8,3.4,4.6c0,1.9-1.7,3.5-5.2,5c4.2,1.5,6.3,3.5,6.3,5.8
				c0,2.1-1.3,3.8-3.8,5.2c-2.2,1.2-5.4,1.7-9.6,1.7h-17.1V15.2H142.1 M132.9,24.8h8.5c3.7,0,5.5-0.9,5.5-2.7c0-1.8-1.8-2.7-5.5-2.7
				h-8.5V24.8 M132.9,35.1h9.3c3.9,0,5.8-1,5.8-3.1c0-2.1-1.9-3.1-5.8-3.1h-9.3V35.1 M142.1,13.7h-17h-1.5v1.5v24.1v1.5h1.5h17.1
				c4.5,0,7.8-0.6,10.3-1.9c3-1.6,4.6-3.8,4.6-6.5c0-2.3-1.5-4.3-4.3-5.9c2.2-1.4,3.2-3,3.2-4.9c0-2.4-1.4-4.4-4.2-5.9
				C149.4,14.3,146.1,13.7,142.1,13.7L142.1,13.7z M134.4,20.8h7c2,0,4,0.3,4,1.2c0,1.1-3.1,1.2-4,1.2h-7V20.8L134.4,20.8z
				 M134.4,30.4h7.8c2,0,4.3,0.3,4.3,1.6c0,1.3-2.3,1.6-4.3,1.6h-7.8V30.4L134.4,30.4z"/>
		</g>
	</g>
</g>
<g>
	<g>
		<circle class="st8" cx="83.8" cy="85.1" r="26"/>
		<g>
			<g>
				<path class="st9" d="M100.1,73.1L88,88.2v8.9h-7.8v-8.9L67.5,73.1h8.7L84,83.7l7.3-10.6H100.1 M102.1,72.1h-2.1h-8.8h-0.5
					l-0.3,0.4L84,81.9l-6.9-9.5l-0.3-0.4h-0.5h-8.7h-2.1l1.4,1.6l12.4,14.9v8.5v1h1H88h1v-1v-8.6l11.8-14.9L102.1,72.1L102.1,72.1z"
					/>
			</g>
		</g>
	</g>
	<g>
		<circle class="st8" cx="27.2" cy="85.1" r="26"/>
		<g>
			<g>
				<path class="st9" d="M43.3,73.1L31.5,84.8l12.2,12.3h-9.3l-7.3-8.3l-7.3,8.3h-9.1l12-12.1L11.2,73.1h9.3l6.7,7.9l7-7.9H43.3
					 M46.9,71.6h-3.6h-9.1h-0.7L33,72.1l-5.8,6.6l-5.6-6.6l-0.4-0.5h-0.7h-9.3H7.6l2.5,2.5L20.7,85l-11,11.1l-2.5,2.6h3.6h9.1h0.7
					l0.4-0.5l6.1-7.1l6.2,7.1l0.4,0.5h0.7h9.3h3.6L44.8,96L33.6,84.8l10.7-10.7L46.9,71.6L46.9,71.6z"/>
			</g>
		</g>
	</g>
	<g>
		<circle class="st8" cx="196.9" cy="85.1" r="26"/>
		<g>
			<g>
				<path class="st9" d="M201.4,73.1l13.2,24.1h-8l-2.5-4.9h-14.3l-2.6,4.9h-8l13.5-24.1H201.4 M192,88.1h9.9l-5-9.4L192,88.1
					 M202.3,71.6h-0.9h-8.7h-0.9l-0.4,0.8l-13.5,24.1l-1.3,2.2h2.6h8h0.9l0.4-0.8l2.1-4.1h12.4l2.1,4l0.4,0.8h0.9h8h2.5l-1.2-2.2
					l-13.2-24.1L202.3,71.6L202.3,71.6z M194.5,86.6l2.5-4.7l2.5,4.7H194.5L194.5,86.6z"/>
			</g>
		</g>
	</g>
	<g>
		<circle class="st8" cx="140.4" cy="85.1" r="26"/>
		<g>
			<g>
				<path class="st9" d="M142.1,73.1c3.8,0,6.8,0.6,9,1.7c2.3,1.3,3.4,2.8,3.4,4.6c0,1.9-1.7,3.5-5.2,5c4.2,1.5,6.3,3.5,6.3,5.8
					c0,2.1-1.3,3.8-3.8,5.2c-2.2,1.2-5.4,1.7-9.6,1.7h-17.1V73.1H142.1 M132.9,82.6h8.5c3.7,0,5.5-0.9,5.5-2.7
					c0-1.8-1.8-2.7-5.5-2.7h-8.5V82.6 M132.9,93h9.3c3.9,0,5.8-1,5.8-3.1c0-2.1-1.9-3.1-5.8-3.1h-9.3V93 M142.1,71.6h-17h-1.5v1.5
					v24.1v1.5h1.5h17.1c4.5,0,7.8-0.6,10.3-1.9c3-1.6,4.6-3.8,4.6-6.5c0-2.3-1.5-4.3-4.3-5.9c2.2-1.4,3.2-3,3.2-4.9
					c0-2.4-1.4-4.4-4.2-5.9C149.4,72.2,146.1,71.6,142.1,71.6L142.1,71.6z M134.4,78.7h7c2,0,4,0.3,4,1.2c0,1.1-3.1,1.2-4,1.2h-7
					V78.7L134.4,78.7z M134.4,88.2h7.8c2,0,4.3,0.3,4.3,1.6c0,1.3-2.3,1.6-4.3,1.6h-7.8V88.2L134.4,88.2z"/>
			</g>
		</g>
	</g>
</g>
<g class="st10">
	<g class="st11">
		<circle class="st8" cx="27.2" cy="204.5" r="26"/>
		<g>
			<g>
				<path class="st9" d="M43.3,192.4l-11.8,11.8l12.2,12.3h-9.3l-7.3-8.3l-7.3,8.3h-9.1l12-12.1l-11.5-12h9.3l6.7,7.9l7-7.9H43.3
					 M47,190.9h-3.6h-9.1h-0.7l-0.5,0.5l-5.8,6.6l-5.6-6.6l-0.4-0.5h-0.7h-9.3H7.6l2.5,2.5l10.6,11l-11,11L7.2,218h3.6h9.1h0.7
					l0.4-0.5l6.1-7.1l6.2,7.1l0.4,0.5h0.7h9.3h3.6l-2.5-2.6l-11.2-11.2l10.7-10.7L47,190.9L47,190.9z"/>
			</g>
		</g>
	</g>
	<g class="st11">
		<circle class="st8" cx="83.8" cy="204.5" r="26"/>
		<g>
			<g>
				<path class="st9" d="M100,192.4l-12,15.2v8.9h-7.8v-8.9l-12.7-15.2h8.7L84,203l7.2-10.6H100 M103.1,190.9H100h-8.8h-0.8
					l-0.4,0.7l-6.1,8.9l-6.5-8.9l-0.4-0.7h-0.8h-8.7h-3.2l2.1,2.5l12.3,14.7v8.4v1.5h1.5H88h1.5v-1.5v-8.4l11.7-14.7L103.1,190.9
					L103.1,190.9z"/>
			</g>
		</g>
	</g>
	<g class="st11">
		<circle class="st8" cx="140.4" cy="204.5" r="26"/>
		<g>
			<g>
				<path class="st9" d="M142.1,192.4c3.8,0,6.8,0.6,9,1.7c2.3,1.3,3.4,2.8,3.4,4.6c0,1.9-1.7,3.5-5.2,5c4.2,1.5,6.3,3.5,6.3,5.8
					c0,2.1-1.3,3.8-3.8,5.2c-2.2,1.2-5.4,1.7-9.6,1.7h-17.1v-24H142.1 M132.9,202h8.5c3.7,0,5.5-0.9,5.5-2.7c0-1.8-1.8-2.7-5.5-2.7
					h-8.5V202 M132.9,212.4h9.3c3.9,0,5.8-1,5.8-3.1c0-2.1-1.9-3.1-5.8-3.1h-9.3V212.4 M142.1,190.9h-17h-1.5v1.5v24.1v1.5h1.5h17.1
					c4.5,0,7.8-0.6,10.3-1.9c3-1.6,4.6-3.8,4.6-6.5c0-2.3-1.5-4.3-4.3-5.9c2.2-1.4,3.2-3,3.2-4.9c0-2.4-1.4-4.4-4.2-5.9
					C149.4,191.6,146.1,190.9,142.1,190.9L142.1,190.9z M134.4,198h7c2,0,4,0.3,4,1.2c0,1.1-3.1,1.2-4,1.2h-7V198L134.4,198z
					 M134.4,207.6h7.8c2,0,4.3,0.3,4.3,1.6s-2.3,1.6-4.3,1.6h-7.8V207.6L134.4,207.6z"/>
			</g>
		</g>
	</g>
	<g class="st11">
		<circle class="st8" cx="196.9" cy="204.5" r="26"/>
		<g>
			<g>
				<path class="st9" d="M201.4,192.4l13.2,24.1h-8l-2.5-4.9h-14.3l-2.6,4.9h-8l13.5-24.1H201.4 M192,207.5h9.9l-5-9.4L192,207.5
					 M202.3,190.9h-0.9h-8.7h-0.9l-0.4,0.8l-13.5,24.1l-1.3,2.2h2.6h8h0.9l0.4-0.8l2.1-4.1H203l2.1,4l0.4,0.8h0.9h8h2.5l-1.2-2.2
					l-13.2-24.1L202.3,190.9L202.3,190.9z M194.5,206l2.5-4.7l2.5,4.7H194.5L194.5,206z"/>
			</g>
		</g>
	</g>
</g>
</svg>
