<?xml version="1.0" encoding="utf-8"?>
<!-- Generator: Adobe Illustrator 25.4.1, SVG Export Plug-In . SVG Version: 6.00 Build 0)  -->
<svg version="1.1" id="Layer_1" xmlns="http://www.w3.org/2000/svg" xmlns:xlink="http://www.w3.org/1999/xlink" x="0px" y="0px"
	 width="796.6px" height="596.8px" viewBox="0 0 796.6 596.8" style="enable-background:new 0 0 796.6 596.8;" xml:space="preserve"
	>
<style type="text/css">
	.st0{fill:#1A1A1A;}
	.st1{fill:#C9CBCD;}
	.st2{fill:url(#SVGID_1_);}
	.st3{fill:url(#SVGID_00000144323715912506481140000005629853286390115497_);}
	.st4{fill-rule:evenodd;clip-rule:evenodd;fill:#1A1A1A;}
	.st5{fill:url(#SVGID_00000176759192812862496610000014229030585864387996_);}
	.st6{fill:url(#SVGID_00000079468289841330477160000005117132803774407811_);}
	.st7{fill:url(#SVGID_00000021806617793049746990000013055740775289200542_);}
	.st8{fill:none;}
	.st9{fill:#717980;}
	.st10{fill:#D4D5D7;}
	.st11{fill:url(#SVGID_00000132080546537593260290000011193858977251001738_);}
	.st12{fill:url(#SVGID_00000156556432944230465470000004306573354812634002_);}
	.st13{fill:url(#SVGID_00000156570758905208981520000004147430885193627068_);}
	.st14{fill:url(#SVGID_00000132062325432007641560000006848643150444960669_);}
	.st15{display:none;fill:#1A1A1A;}
	.st16{fill:#EDA426;}
	.st17{display:none;}
	.st18{display:inline;}
	.st19{fill:#775213;}
	.st20{fill:#268AED;}
	.st21{fill:#134577;}
	.st22{fill:#91ED26;}
	.st23{fill:#497713;}
	.st24{fill:#ED2635;}
	.st25{fill:#77131B;}
	.st26{fill:#EDA426;stroke:#000000;stroke-width:0.75;stroke-miterlimit:10;}
	.st27{fill:#268AED;stroke:#000000;stroke-width:0.75;stroke-miterlimit:10;}
	.st28{fill:#91ED26;stroke:#000000;stroke-width:0.75;stroke-miterlimit:10;}
	.st29{fill:#ED2635;stroke:#000000;stroke-width:0.75;stroke-miterlimit:10;}
	.st30{fill:url(#SVGID_00000065062643889950134360000014715651460638385048_);}
	.st31{fill:#0D0D0D;}
	.st32{fill:#111111;}
	.st33{fill:#141414;}
</style>
<g>
	<path d="M609.1,112.8l50.9,3.9c0.6,0,1.2,0.3,1.7,0.7l11.6,9c0.8,0.6,1.2,1.5,1.2,2.5v4.1c0,1.8-1.4,3.2-3.2,3.2H600
		c-1.8,0-3.2-1.4-3.2-3.2l0-11.4c0-1.1,0.6-2.1,1.5-2.7l8.8-5.6C607.7,112.9,608.4,112.7,609.1,112.8z"/>
	<g>
		<path d="M644.9,3.5c-6.2-1.6-11.9-2.6-15.8-3c-4.8-0.5-12-1.5-18.3,2c-8.8,4.9-9.6,27.2-9.6,27.2v68.3h75c0,0-2.8-52-8-70
			C663.5,12,656.5,6.6,644.9,3.5z"/>
		<path class="st0" d="M609.4,53.4c0.3-4.6,1.7-13.8,7.4-16.9c3.1-1.8,8.3-1.4,11-1.2c4.8,0.3,13.3,1.5,17.8,2.9
			c4.6,1.3,10.2,2.5,13.6,9l0,0c3.3,7.6,6.1,27.7,7.1,36c0.2,1.9-1.2,3.6-3.2,3.6h-53.1c-1.9,0-3.3-1.6-3.2-3.4L609.4,53.4z"/>
		<g>
			<path d="M629.2,73.5c0.7-0.1,1.8-0.2,3-0.2c1.5,0,2.6,0.2,3.3,0.8c0.6,0.5,0.9,1.2,0.9,2.1c0,1.3-0.9,2.2-1.8,2.5v0
				c0.7,0.3,1.1,1,1.4,1.9c0.3,1.1,0.6,2.5,0.8,2.9h-2.3c-0.2-0.3-0.4-1.1-0.7-2.4c-0.3-1.3-0.7-1.6-1.6-1.6h-0.7v4h-2.3V73.5z
				 M631.4,77.8h0.9c1.1,0,1.8-0.6,1.8-1.5c0-0.9-0.6-1.4-1.7-1.4c-0.6,0-0.9,0-1,0.1V77.8z"/>
			<path d="M640,75.3h-2.7v-1.9h7.8v1.9h-2.8v8.2H640V75.3z"/>
		</g>
	</g>
	<path d="M187.6,112.8l-50.9,3.9c-0.6,0-1.2,0.3-1.7,0.7l-11.6,9c-0.8,0.6-1.2,1.5-1.2,2.5v4.1c0,1.8,1.4,3.2,3.2,3.2h71.3
		c1.8,0,3.2-1.4,3.2-3.2v-11.4c0-1.1-0.6-2.1-1.5-2.7l-8.8-5.6C189,112.9,188.3,112.7,187.6,112.8z"/>
	<g>
		<path d="M151.8,3.5c6.2-1.6,11.9-2.6,15.8-3c4.8-0.5,12-1.5,18.3,2c8.8,4.9,9.6,27.2,9.6,27.2v68.3h-75c0,0,2.8-52,8-70
			C133.2,12,140.1,6.6,151.8,3.5z"/>
		<path class="st0" d="M187.3,53.4c-0.3-4.6-1.7-13.8-7.4-16.9c-3.1-1.8-8.3-1.4-11-1.2c-4.8,0.3-13.3,1.5-17.8,2.9
			c-4.6,1.3-10.2,2.5-13.6,9l0,0c-3.3,7.6-6.1,27.7-7.1,36c-0.2,1.9,1.2,3.6,3.2,3.6h53.1c1.9,0,3.3-1.6,3.2-3.4L187.3,53.4z"/>
		<g>
			<path d="M153.8,73.4h2.3v8.2h4v1.9h-6.3V73.4z"/>
			<path d="M161.8,75.3h-2.7v-1.9h7.8v1.9h-2.8v8.2h-2.3V75.3z"/>
		</g>
	</g>
</g>
<g>
	<path class="st1" d="M763.1,243.7c-25.1-76.5-43.4-110.4-128.7-117.1c-19-1.5-44.2-2.9-60.4-0.8c-16,2.1-43,6.9-54.1,26.6
		c-12.5,22.4-15.8,40.7-68,36.4c-20.2-1.7-37.9-2.9-53.7-2.9c0,0,0,0,0,0c-15.7,0-33.5,1.2-53.7,2.9c-52.1,4.3-55.4-14.1-68-36.4
		c-11-19.7-38-24.5-54.1-26.6c-16.2-2.1-41.3-0.7-60.4,0.8C77,133.3,58.7,167.3,33.6,243.7c-11.4,34.9-41,156.7-31.9,242.6
		C9.8,562.1,51,606,110.8,595.2c67.9-12.2,78.7-94.4,117.4-109.9c47.3-19,143.9-24.1,170.1-24.1s122.8,5.2,170.1,24.1
		c38.7,15.5,49.5,97.7,117.4,109.9c59.8,10.7,101-33.1,109.1-108.9C804.1,400.4,774.5,278.6,763.1,243.7z"/>
	
		<radialGradient id="SVGID_1_" cx="396.5727" cy="210.0632" r="389.1584" gradientTransform="matrix(1 0 0 0.4955 0 105.9701)" gradientUnits="userSpaceOnUse">
		<stop  offset="0.7346" style="stop-color:#717980"/>
		<stop  offset="0.8167" style="stop-color:#737B82"/>
		<stop  offset="0.8571" style="stop-color:#7B8289"/>
		<stop  offset="0.8884" style="stop-color:#888E94"/>
		<stop  offset="0.9151" style="stop-color:#9BA0A4"/>
		<stop  offset="0.9385" style="stop-color:#B3B6B9"/>
		<stop  offset="0.9553" style="stop-color:#C9CBCD"/>
	</radialGradient>
	<path class="st2" d="M24.2,351.7c6.1-38.9,13-70.9,17.2-86.8c22.3-84.7,38.5-122.3,114.3-129.7c16.9-1.7,39.2-3.2,53.6-0.9h-1.1
		c17.4,2.3,46.6,7.6,58.5,29.5c13.5,24.8,17.1,45.1,73.6,40.4c21.9-1.8,41.1-3.2,58.1-3.2c0,0,0,0,0,0c17,0,36.2,1.3,58.1,3.2
		c56.4,4.7,60-15.6,73.6-40.4c12-21.8,41.2-27.2,58.5-29.5h-1c14.5-2.3,37-0.8,54.1,0.9c76.4,7.4,92.8,45,115.2,129.7
		c4.2,15.9,11.1,47.9,17.3,86.8h13.6c-7.8-48-18.6-89.7-24.6-107.9c-25.1-76.5-43.4-110.4-128.7-117.1c-19-1.5-44.2-2.9-60.4-0.8
		c-16,2.1-43,6.9-54.1,26.6c-12.5,22.4-15.8,40.7-68,36.4c-20.2-1.7-37.9-2.9-53.7-2.9c0,0,0,0,0,0c-15.7,0-33.5,1.2-53.7,2.9
		c-52.1,4.3-55.4-14.1-68-36.4c-11-19.7-38-24.5-54.1-26.6c-16.2-2.1-41.3-0.7-60.4,0.8C77,133.3,58.7,167.3,33.6,243.7
		c-6,18.2-16.8,59.9-24.6,107.9H24.2z"/>
</g>
<g>
	<g>
		
			<linearGradient id="SVGID_00000144326464445375431540000006065791700514016904_" gradientUnits="userSpaceOnUse" x1="398.9673" y1="302.7691" x2="398.9673" y2="235.419">
			<stop  offset="0" style="stop-color:#C9CBCD"/>
			<stop  offset="1" style="stop-color:#717980"/>
		</linearGradient>
		<path style="fill:url(#SVGID_00000144326464445375431540000006065791700514016904_);" d="M386.8,302.8
			c-17.4,0-31.6-14.2-31.6-31.6v-4.1c0-17.4,14.2-31.6,31.6-31.6h24.4c17.4,0,31.6,14.2,31.6,31.6v4.1c0,17.4-14.2,31.6-31.6,31.6
			H386.8z"/>
		<path d="M411.2,236.2c17.1,0,30.9,13.8,30.9,30.9v4.1c0,17.1-13.8,30.9-30.9,30.9h-24.4c-17.1,0-30.9-13.8-30.9-30.9v-4.1
			c0-17.1,13.8-30.9,30.9-30.9H411.2 M411.2,234.7h-24.4c-17.9,0-32.4,14.5-32.4,32.4v4.1c0,17.9,14.5,32.4,32.4,32.4h24.4
			c17.9,0,32.4-14.5,32.4-32.4v-4.1C443.6,249.2,429,234.7,411.2,234.7L411.2,234.7z"/>
	</g>
	<g>
		<path class="st4" d="M416.6,280.2c0.1,0,0.2,0,0.4-0.1c0.6-0.3,1.1-0.4,1.7-0.4c1.6,0,2.6,1,2.6,2.6v4.8c0,0.1-0.1,0.2-0.2,0.2
			h-0.9c-0.1,0-0.2-0.1-0.2-0.2v-4.7c0-1.1-0.5-1.6-1.7-1.6c-0.4,0-0.7,0.1-1,0.2c-0.4,0.2-0.6,0.4-0.6,0.8v5.3
			c0,0.1-0.1,0.2-0.2,0.2h-0.9c-0.1,0-0.2-0.1-0.2-0.2v-9.9c0-0.1,0.1-0.2,0.2-0.2h0.9c0.1,0,0.2,0.1,0.2,0.2L416.6,280.2
			L416.6,280.2L416.6,280.2z"/>
		<path class="st4" d="M403.1,283.8c0,1.5,1,2.6,2.4,2.6c0.5,0,1.2-0.2,1.8-0.5l0.1-0.1c0.1,0,0.1-0.1,0.2-0.1
			c0.1,0,0.2,0.1,0.2,0.2v0.6c0,0.2,0,0.3-0.3,0.4c-0.6,0.3-1.5,0.5-2.2,0.5c-2.2,0-3.6-1.5-3.6-3.8c0-2.4,1.3-3.9,3.4-3.9
			c1.9,0,3.2,1.3,3.2,3.4v0.4c0,0.1-0.1,0.2-0.2,0.2L403.1,283.8L403.1,283.8L403.1,283.8z M406.9,282.5c0-1.1-0.8-1.8-1.9-1.8
			c-1.1,0-1.9,0.8-1.9,1.9h3.8C406.9,282.6,406.9,282.5,406.9,282.5L406.9,282.5z"/>
		<path class="st4" d="M414.4,285.8c0.1,0,0.2,0.1,0.2,0.3v0.6c0,0.2,0,0.3-0.2,0.3c-0.5,0.3-1.4,0.4-2.1,0.4
			c-2.3,0-3.7-1.4-3.7-3.8c0-2.4,1.5-3.9,3.9-3.9c0.6,0,1.3,0.1,1.9,0.4c0.2,0.1,0.3,0.1,0.3,0.3v0.7c0,0.1-0.1,0.3-0.2,0.3
			c-0.1,0-0.1,0-0.2-0.1c-0.6-0.3-1.1-0.5-1.7-0.5c-1.5,0-2.4,1-2.4,2.8c0,1.8,0.9,2.8,2.4,2.8c0.5,0,1.1-0.1,1.6-0.4l0.1,0
			C414.3,285.8,414.4,285.8,414.4,285.8L414.4,285.8z"/>
		<path class="st4" d="M397,280.8c-0.1,0-0.2-0.1-0.2-0.2V280c0-0.1,0.1-0.2,0.2-0.2h0.8V278c0-0.1,0.1-0.2,0.2-0.2h0.9
			c0.1,0,0.2,0.1,0.2,0.2v1.8h2.1c0.1,0,0.2,0.1,0.2,0.2v0.6c0,0.1-0.1,0.2-0.2,0.2h-2.1v4.3c0,0.8,0.3,1.2,1.1,1.2
			c0.3,0,0.5-0.1,0.8-0.2l0.2-0.1c0.1,0,0.1,0,0.2,0c0.1,0,0.2,0.1,0.2,0.2v0.5c0,0.1,0,0.2-0.2,0.3c-0.4,0.2-1,0.3-1.5,0.3
			c-1.3,0-2-0.7-2-1.9v-4.6H397L397,280.8z"/>
		<path class="st4" d="M394.4,287.1v-7c0-0.1,0.1-0.2,0.2-0.2h0.9c0.1,0,0.2,0.1,0.2,0.2v7c0,0.1-0.1,0.2-0.2,0.2h-0.9
			C394.5,287.3,394.4,287.2,394.4,287.1L394.4,287.1z M395.1,276.9c0.5,0,0.8,0.3,0.8,0.8c0,0.5-0.3,0.8-0.8,0.8
			c-0.5,0-0.8-0.3-0.8-0.8C394.3,277.2,394.6,276.9,395.1,276.9L395.1,276.9z"/>
		<path class="st4" d="M391.4,286.9c-0.5,0.3-1.1,0.4-1.6,0.4c-2.1,0-3.5-1.5-3.5-3.7c0-2.3,1.5-3.8,3.7-3.8c0.4,0,0.9,0.1,1.2,0.2
			c0.1,0,0.2,0.1,0.4,0.2c0.1,0,0.1,0.1,0.2,0.1l0.1,0v-0.1c0-0.2,0.1-0.3,0.2-0.3h0.8c0.1,0,0.2,0.1,0.2,0.2v7.4
			c0,1.9-1.2,2.9-3.5,2.9c-0.8,0-1.8-0.2-2.5-0.4c-0.3-0.1-0.4-0.2-0.4-0.4v-0.6c0-0.1,0.1-0.3,0.2-0.3c0.1,0,0.1,0,0.2,0.1l0.2,0.1
			c0.6,0.3,1.5,0.5,2.2,0.5c0.7,0,1.3-0.1,1.7-0.4c0.4-0.3,0.5-0.7,0.5-1.4v-0.7C391.5,286.8,391.5,286.8,391.4,286.9L391.4,286.9z
			 M391.4,281.1c-0.3-0.2-0.8-0.3-1.3-0.3c-1.5,0-2.4,1-2.4,2.8c0,1.6,0.9,2.7,2.4,2.7c0.4,0,0.9-0.1,1.2-0.3
			c0.3-0.1,0.3-0.3,0.3-0.6v-3.8C391.6,281.3,391.6,281.2,391.4,281.1L391.4,281.1z"/>
		<path class="st4" d="M382.1,279.7c2.2,0,3.6,1.5,3.6,3.9c0,2.4-1.4,3.9-3.5,3.9c-2.2,0-3.6-1.5-3.6-3.9
			C378.5,281.2,379.9,279.7,382.1,279.7L382.1,279.7z M380.6,285.9c0.3,0.4,0.9,0.6,1.5,0.6c1.4,0,2.1-0.9,2.1-2.9
			c0-1.9-0.7-2.9-2.1-2.9c-1.4,0-2.1,0.9-2.1,2.9C380,284.7,380.2,285.4,380.6,285.9L380.6,285.9z"/>
		<path class="st4" d="M378.7,286.2c0.1,0,0.2,0.1,0.2,0.2v0.7c0,0.1-0.1,0.2-0.2,0.2h-4.8c-0.1,0-0.2-0.1-0.2-0.2v-9.6
			c0-0.1,0.1-0.2,0.2-0.2h1.1c0.1,0,0.2,0.1,0.2,0.2v8.7H378.7L378.7,286.2z"/>
		<path class="st4" d="M406.2,252.3c2.3-1.2,4-2.9,3.8-3.7c-0.2-0.8-1.2-1.1-2.2-0.7c-1,0.4-2.7,2-3.8,3.7
			C402.9,253.2,403.9,253.5,406.2,252.3L406.2,252.3z"/>
		<path class="st4" d="M409.1,261.3c1.3,0.6,3,0.6,4.3,0.1c1.3-0.5,1.8-1.2,1-1.6c-1-0.4-3.9-0.5-6-0.3
			C406.8,259.9,407.5,260.7,409.1,261.3L409.1,261.3z"/>
		<path class="st4" d="M406.1,269.5c1.5,1.8,3.7,3.5,4.8,3.6c0.9-0.1,0.4-1.6-0.7-2.9c-1-1.2-2.7-2.3-3.9-2.6
			C405,267.2,404.8,267.9,406.1,269.5L406.1,269.5z"/>
		<path class="st4" d="M399.6,264.1c-0.6,0-1.3-0.5-1.3-0.3c-0.2,0.4,0.7,1.7,1.9,1.3c0.3-0.1,0.8-0.4,0.9-0.5
			C402.2,263.6,400.4,264.2,399.6,264.1L399.6,264.1z M401,258.3c-0.8,0.1-1.4,0.5-1.8,1c-0.4,0.5-1.1,1.3-0.7,2.1
			c0,0.1,0.3,0.5,0.9,0.6c1.3,0.4,2.8,0.2,3.5-1c0.1-0.2,0.3-0.5,0.2-0.9c-0.1-0.8-0.6-1.1-0.8-1.3C402,258.6,401.5,258.3,401,258.3
			L401,258.3z M398.3,257.9c-1.6,0.2-2.3,1.4-1.7,3.2c0,0.1,0.2,0.1,0.2-0.1c0-0.2,0.1-0.3,0.1-0.6c0.1-0.4,0.3-0.9,0.5-1.1
			c0.4-0.7,1.2-0.9,1.6-1.4C399.3,257.8,398.6,257.9,398.3,257.9L398.3,257.9z M397.1,256.3c0.5-0.2,0.8-0.2,1.4-0.3
			c1.2-0.2,4.2,0.2,5.1,0.6c0.4,0.2,0.8,0.4,1.1,0.7c0.8,0.6,1.6,1.2,1.4,2.8c-0.3,1.7-1.5,2.7-2.6,3.7c-1.1,1-2.2,1.9-3.9,2.3
			c-0.7,0.2-2.4-0.1-2.8-0.9c-0.2-0.3-0.3-0.6-0.5-0.9c-0.1-0.2-0.1-0.4-0.3-0.6c-0.1-0.1-0.4-0.3-0.6-0.4c-0.7-0.4-1.4-0.8-1.8-1.6
			c-0.3-0.5-0.7-1.9-0.4-2.6c0.3-0.8,0.9-1.2,1.5-1.7c0.3-0.2,0.7-0.5,1-0.6C396.2,256.7,396.6,256.4,397.1,256.3L397.1,256.3z"/>
		<path class="st4" d="M385.8,251c-2.6,2.6-5.2,6.8-4.4,11.8c0.4,3,2,5.2,3.4,6.8c1.8,2,4.6,3.9,7,3.5c1.1-0.2,2-1.2,2.4-1.9
			c1.6-2.9-1.7-6.8-2-8.2c-0.7-1.9-0.6-2.9-0.5-4.7c0.2-2.9,2.3-6.2,2.8-7c0.5-0.9,1.1-1.6,1.5-2.3c0.1-0.2,0.4-0.6,0.3-1
			c-0.1-0.5-0.8-0.8-1.4-0.8c-1-0.1-1.8,0-2.5,0.2c-1.8,0.4-3.3,1.1-4.2,1.7C387.4,249.6,386.6,250.2,385.8,251L385.8,251z"/>
	</g>
</g>
<g>
	<g>
		
			<linearGradient id="SVGID_00000112605814403283828950000013132337525809245858_" gradientUnits="userSpaceOnUse" x1="480.8983" y1="259.8087" x2="480.8983" y2="222.8087">
			<stop  offset="0" style="stop-color:#C9CBCD"/>
			<stop  offset="1" style="stop-color:#717980"/>
		</linearGradient>
		<path style="fill:url(#SVGID_00000112605814403283828950000013132337525809245858_);" d="M490,228.8c6.9,0,12.5,5.6,12.5,12.5
			s-5.6,12.5-12.5,12.5h-18.3c-6.9,0-12.5-5.6-12.5-12.5s5.6-12.5,12.5-12.5H490 M490,222.8h-18.3c-10.2,0-18.5,8.3-18.5,18.5
			s8.3,18.5,18.5,18.5H490c10.2,0,18.5-8.3,18.5-18.5S500.2,222.8,490,222.8L490,222.8z"/>
	</g>
	<g>
		<path class="st0" d="M471.7,254.6c-7.3,0-13.2-5.9-13.2-13.2s5.9-13.2,13.2-13.2H490c7.3,0,13.2,5.9,13.2,13.2
			s-5.9,13.2-13.2,13.2H471.7z"/>
		<path d="M490,228.8c6.9,0,12.5,5.6,12.5,12.5s-5.6,12.5-12.5,12.5h-18.3c-6.9,0-12.5-5.6-12.5-12.5s5.6-12.5,12.5-12.5H490
			 M490,227.3h-18.3c-7.7,0-14,6.3-14,14s6.3,14,14,14H490c7.7,0,14-6.3,14-14S497.8,227.3,490,227.3L490,227.3z"/>
	</g>
	<polygon points="476.3,241.3 476.3,232.5 483.9,236.9 491.5,241.3 483.9,245.7 476.3,250.1 	"/>
</g>
<path d="M775,288c-0.8,30.2-6,62.4-19.9,89.7c-35,68.5-19,176.6,3.3,196.9c19.6-19,32.4-49.4,36.5-88.2
	C801.6,423.4,787.6,341.2,775,288z"/>
<path d="M21.6,288c0.8,30.2,6,62.4,19.9,89.7c35,68.5,19,176.6-3.3,196.9c-19.6-19-32.4-49.4-36.5-88.2C-5,423.4,9.1,341.2,21.6,288
	z"/>
<g>
	<g>
		
			<linearGradient id="SVGID_00000118371972920692746600000008551460297664626098_" gradientUnits="userSpaceOnUse" x1="315.7627" y1="259.8087" x2="315.7627" y2="222.8087">
			<stop  offset="0" style="stop-color:#C9CBCD;stop-opacity:0.6"/>
			<stop  offset="0" style="stop-color:#C9CBCD"/>
			<stop  offset="1" style="stop-color:#717980"/>
		</linearGradient>
		<path style="fill:url(#SVGID_00000118371972920692746600000008551460297664626098_);" d="M324.9,228.8c6.9,0,12.5,5.6,12.5,12.5
			s-5.6,12.5-12.5,12.5h-18.3c-6.9,0-12.5-5.6-12.5-12.5s5.6-12.5,12.5-12.5H324.9 M324.9,222.8h-18.3c-10.2,0-18.5,8.3-18.5,18.5
			s8.3,18.5,18.5,18.5h18.3c10.2,0,18.5-8.3,18.5-18.5S335.1,222.8,324.9,222.8L324.9,222.8z"/>
	</g>
	<g>
		<path class="st0" d="M306.6,254.6c-7.3,0-13.2-5.9-13.2-13.2s5.9-13.2,13.2-13.2h18.3c7.3,0,13.2,5.9,13.2,13.2
			s-5.9,13.2-13.2,13.2H306.6z"/>
		<path d="M324.9,228.8c6.9,0,12.5,5.6,12.5,12.5s-5.6,12.5-12.5,12.5h-18.3c-6.9,0-12.5-5.6-12.5-12.5s5.6-12.5,12.5-12.5H324.9
			 M324.9,227.3h-18.3c-7.7,0-14,6.3-14,14s6.3,14,14,14h18.3c7.7,0,14-6.3,14-14S332.6,227.3,324.9,227.3L324.9,227.3z"/>
	</g>
	<polygon points="320.4,241.3 320.4,232.5 312.8,236.9 305.2,241.3 312.8,245.7 320.4,250.1 	"/>
</g>
<g>
	<g>
		
			<linearGradient id="SVGID_00000132775844452810264490000001077809530213163447_" gradientUnits="userSpaceOnUse" x1="331.7627" y1="327.5427" x2="331.7627" y2="295.0747">
			<stop  offset="0" style="stop-color:#C9CBCD"/>
			<stop  offset="1" style="stop-color:#717980"/>
		</linearGradient>
		<path style="fill:url(#SVGID_00000132775844452810264490000001077809530213163447_);" d="M340,300.1c6.2,0,11.2,5,11.2,11.2
			s-5,11.2-11.2,11.2h-16.4c-6.2,0-11.2-5-11.2-11.2s5-11.2,11.2-11.2H340 M340,295.1h-16.4c-9,0-16.2,7.3-16.2,16.2
			c0,9,7.3,16.2,16.2,16.2H340c9,0,16.2-7.3,16.2-16.2C356.2,302.4,348.9,295.1,340,295.1L340,295.1z"/>
	</g>
	<g>
		<path class="st0" d="M323.5,323.3c-6.6,0-12-5.4-12-12s5.4-12,12-12H340c6.6,0,12,5.4,12,12s-5.4,12-12,12H323.5z"/>
		<path d="M340,300.1c6.2,0,11.2,5,11.2,11.2s-5,11.2-11.2,11.2h-16.4c-6.2,0-11.2-5-11.2-11.2s5-11.2,11.2-11.2H340 M340,298.6
			h-16.4c-7,0-12.7,5.7-12.7,12.7s5.7,12.7,12.7,12.7H340c7,0,12.7-5.7,12.7-12.7S347,298.6,340,298.6L340,298.6z"/>
	</g>
</g>
<circle class="st8" cx="628.4" cy="300" r="86.7"/>
<g>
	<path class="st9" d="M712.9,215.5c-47.9-47.9-124.6-48.9-171.2-2.2c-33.7,33.7-42.5,83-26.9,125.8c0.9,2.4-0.9,4.9-3.4,4.8
		c-23-0.8-46,7.3-63.2,24.6c-33.6,33.6-32.7,89.1,2.1,123.9c34.8,34.8,90.3,35.7,123.9,2.1c19.7-19.7,27.5-46.8,23.7-73
		c-0.4-2.4,1.9-4.5,4.3-3.9c39.6,9.8,82.6-0.4,113-30.8C761.8,340.1,760.8,263.4,712.9,215.5z"/>
	<path class="st10" d="M627.5,180.6c-64.8,0.5-117.9,53.4-118.5,118.2c-0.2,14.2,2.2,27.9,6.6,40.6c1,2.9-1.2,5.9-4.3,5.9
		c0,0,0,0-0.1,0c-48.3,0-87.3,39.7-86.1,88.2c1.1,45.7,38.3,83,84,84c48.5,1.1,88.2-37.9,88.2-86.1c0-3.3-0.2-6.6-0.6-9.9
		c-0.4-3.1,2.4-5.6,5.4-4.9c8.9,2,18.2,3,27.7,2.9c65.8-0.8,119-55.5,118.1-121.3C746.9,232.8,693.3,180,627.5,180.6z"/>
	
		<linearGradient id="SVGID_00000038386345203985455120000013038358090895367101_" gradientUnits="userSpaceOnUse" x1="628.42" y1="390.4672" x2="628.42" y2="209.6155">
		<stop  offset="0" style="stop-color:#C9CBCD"/>
		<stop  offset="1" style="stop-color:#717980"/>
	</linearGradient>
	<circle style="fill:url(#SVGID_00000038386345203985455120000013038358090895367101_);" cx="628.4" cy="300" r="90.4"/>
	
		<radialGradient id="SVGID_00000175284629364554547940000016685187618191887038_" cx="511.1989" cy="431.4098" r="95.0296" gradientUnits="userSpaceOnUse">
		<stop  offset="0" style="stop-color:#C9CBCD"/>
		<stop  offset="0.1813" style="stop-color:#C3C5C7"/>
		<stop  offset="0.4334" style="stop-color:#B1B4B8"/>
		<stop  offset="0.7257" style="stop-color:#93999E"/>
		<stop  offset="1" style="stop-color:#717980"/>
	</radialGradient>
	<circle style="fill:url(#SVGID_00000175284629364554547940000016685187618191887038_);" cx="511.2" cy="431.4" r="75.9"/>
</g>
<circle cx="511.2" cy="431.4" r="57.3"/>
<g>
	<path class="st9" d="M83.7,215.5c47.9-47.9,124.6-48.9,171.2-2.2c33.7,33.7,42.5,83,26.9,125.8c-0.9,2.4,0.9,4.9,3.4,4.8
		c23-0.8,46,7.3,63.2,24.6c33.6,33.6,32.7,89.1-2.1,123.9c-34.8,34.8-90.3,35.7-123.9,2.1c-19.7-19.7-27.5-46.8-23.7-73
		c0.4-2.4-1.9-4.5-4.3-3.9c-39.6,9.8-82.6-0.4-113-30.8C34.9,340.1,35.9,263.4,83.7,215.5z"/>
	<path class="st10" d="M285.5,345.3C285.4,345.3,285.4,345.3,285.5,345.3c-3.2,0-5.4-3-4.3-5.9c4.4-12.7,6.8-26.4,6.6-40.6
		C287,233.9,234,181.1,169.2,180.6C103.4,180,49.7,232.8,48.8,298.3c-1,65.8,52.2,120.5,118.1,121.3c9.5,0.1,18.8-0.9,27.7-2.9
		c3-0.7,5.7,1.8,5.4,4.9c-0.4,3.2-0.6,6.5-0.6,9.9c0,48.3,39.7,87.3,88.2,86.1c45.7-1.1,83-38.3,84-84
		C372.7,385,333.7,345.3,285.5,345.3z"/>
	
		<linearGradient id="SVGID_00000146487288447255336760000013990717359422321539_" gradientUnits="userSpaceOnUse" x1="167.9349" y1="390.1611" x2="167.9349" y2="209.3094">
		<stop  offset="0" style="stop-color:#C9CBCD"/>
		<stop  offset="1" style="stop-color:#717980"/>
	</linearGradient>
	<circle style="fill:url(#SVGID_00000146487288447255336760000013990717359422321539_);" cx="167.9" cy="299.7" r="90.4"/>
	
		<radialGradient id="SVGID_00000154389100400156358450000015119692721307644842_" cx="285.4621" cy="431.4098" r="95.0296" gradientUnits="userSpaceOnUse">
		<stop  offset="0" style="stop-color:#C9CBCD"/>
		<stop  offset="0.1813" style="stop-color:#C3C5C7"/>
		<stop  offset="0.4334" style="stop-color:#B1B4B8"/>
		<stop  offset="0.7257" style="stop-color:#93999E"/>
		<stop  offset="1" style="stop-color:#717980"/>
	</radialGradient>
	<circle style="fill:url(#SVGID_00000154389100400156358450000015119692721307644842_);" cx="285.5" cy="431.4" r="75.9"/>
</g>
<circle cx="285.5" cy="431.4" r="57.3"/>
<circle class="st15" cx="511.2" cy="431.4" r="51"/>
<circle class="st15" cx="285.5" cy="431.4" r="51"/>
<g>
	<g>
		<circle class="st16" cx="628.4" cy="239.3" r="26"/>
		<g>
			<path d="M628.4,213.3c14.4,0,26,11.7,26,26s-11.7,26-26,26s-26-11.7-26-26S614,213.3,628.4,213.3 M628.4,211.8
				c-15.2,0-27.5,12.3-27.5,27.5s12.3,27.5,27.5,27.5s27.5-12.3,27.5-27.5S643.6,211.8,628.4,211.8L628.4,211.8z"/>
		</g>
		<g class="st17">
			<g class="st18">
				<path class="st19" d="M644.7,227.3l-12.1,15.1v8.9h-7.8v-8.9l-12.6-15.1h8.7l7.8,10.6l7.3-10.6H644.7 M647.8,225.8h-3.1h-8.8
					h-0.8l-0.4,0.7l-6.1,8.9l-6.5-8.9l-0.4-0.6h-0.8h-8.7h-3.2l2.1,2.5l12.3,14.7v8.4v1.5h1.5h7.8h1.5v-1.5V243l11.7-14.7
					L647.8,225.8L647.8,225.8z"/>
			</g>
		</g>
	</g>
	<g>
		<circle class="st20" cx="567.7" cy="300" r="26"/>
		<g>
			<path d="M567.7,274c14.4,0,26,11.7,26,26c0,14.4-11.7,26-26,26s-26-11.7-26-26C541.7,285.7,553.3,274,567.7,274 M567.7,272.5
				c-15.2,0-27.5,12.3-27.5,27.5c0,15.2,12.3,27.5,27.5,27.5s27.5-12.3,27.5-27.5C595.2,284.9,582.9,272.5,567.7,272.5L567.7,272.5z
				"/>
		</g>
		<g class="st17">
			<g class="st18">
				<path class="st21" d="M583.7,288L572,299.8l12.2,12.3h-9.3l-7.3-8.3l-7.3,8.3h-9.1l12-12.1L551.7,288h9.3l6.7,7.9l7-7.9H583.7
					 M587.3,286.5h-3.6h-9.1H574l-0.4,0.5l-5.8,6.6l-5.6-6.6l-0.4-0.5H561h-9.3h-3.5l2.5,2.5l10.6,10.9l-11,11.1l-2.5,2.6h3.6h9.1
					h0.7l0.4-0.5l6.1-7.1l6.2,7.1l0.4,0.5h0.7h9.3h3.6l-2.5-2.6l-11.2-11.2l10.7-10.7L587.3,286.5L587.3,286.5z"/>
			</g>
		</g>
	</g>
	<g>
		<circle class="st22" cx="628.4" cy="360.7" r="26"/>
		<g>
			<path d="M628.4,334.7c14.4,0,26,11.7,26,26s-11.7,26-26,26s-26-11.7-26-26S614,334.7,628.4,334.7 M628.4,333.2
				c-15.2,0-27.5,12.3-27.5,27.5s12.3,27.5,27.5,27.5s27.5-12.3,27.5-27.5S643.6,333.2,628.4,333.2L628.4,333.2z"/>
		</g>
		<g class="st17">
			<g class="st18">
				<path class="st23" d="M632.9,348.7l13.2,24.1h-8l-2.5-4.9h-14.3l-2.6,4.9h-8l13.5-24.1H632.9 M623.5,363.8h9.9l-5-9.4
					L623.5,363.8 M633.8,347.2h-0.9h-8.7h-0.9L623,348L609.4,372l-1.3,2.2h2.6h8h0.9l0.4-0.8l2.1-4.1h12.4l2.1,4l0.4,0.8h0.9h8h2.5
					l-1.2-2.2L634.3,348L633.8,347.2L633.8,347.2z M626,362.3l2.5-4.7l2.5,4.7H626L626,362.3z"/>
			</g>
		</g>
	</g>
	<g>
		<circle class="st24" cx="689.1" cy="300" r="26"/>
		<g>
			<path d="M689.1,274c14.4,0,26,11.7,26,26c0,14.4-11.7,26-26,26s-26-11.7-26-26C663.1,285.7,674.8,274,689.1,274 M689.1,272.5
				c-15.2,0-27.5,12.3-27.5,27.5c0,15.2,12.3,27.5,27.5,27.5s27.5-12.3,27.5-27.5C716.6,284.9,704.3,272.5,689.1,272.5L689.1,272.5z
				"/>
		</g>
		<g class="st17">
			<g class="st18">
				<path class="st25" d="M690.8,288c3.8,0,6.8,0.6,9,1.7c2.3,1.3,3.4,2.8,3.4,4.6c0,1.9-1.7,3.5-5.2,5c4.2,1.5,6.3,3.5,6.3,5.8
					c0,2.1-1.3,3.8-3.8,5.2c-2.2,1.2-5.4,1.7-9.6,1.7h-17.1V288H690.8 M681.7,297.6h8.5c3.7,0,5.5-0.9,5.5-2.7
					c0-1.8-1.8-2.7-5.5-2.7h-8.5V297.6 M681.7,307.9h9.3c3.9,0,5.8-1,5.8-3.1c0-2.1-1.9-3.1-5.8-3.1h-9.3V307.9 M690.8,286.5h-17
					h-1.5v1.5v24.1v1.5h1.5H691c4.5,0,7.8-0.6,10.3-1.9c3-1.6,4.6-3.8,4.6-6.5c0-2.3-1.5-4.3-4.3-5.9c2.2-1.4,3.2-3,3.2-4.9
					c0-2.4-1.4-4.4-4.2-5.9C698.2,287.2,694.9,286.5,690.8,286.5L690.8,286.5z M683.2,293.6h7c2,0,4,0.3,4,1.2c0,1.1-3.1,1.2-4,1.2
					h-7V293.6L683.2,293.6z M683.2,303.2h7.8c2,0,4.3,0.3,4.3,1.6c0,1.3-2.3,1.6-4.3,1.6h-7.8V303.2L683.2,303.2z"/>
			</g>
		</g>
	</g>
</g>
<g class="st17">
	<g class="st18">
		<circle class="st26" cx="628.4" cy="234.3" r="26"/>
		<g>
			<g>
				<path class="st19" d="M644.7,222.3l-12.1,15.1v8.9h-7.8v-8.9l-12.6-15.1h8.7l7.8,10.6l7.3-10.6H644.7 M647.8,220.8h-3.1h-8.8
					h-0.8l-0.4,0.7l-6.1,8.9l-6.5-8.9l-0.4-0.6h-0.8h-8.7h-3.2l2.1,2.5l12.3,14.7v8.4v1.5h1.5h7.8h1.5v-1.5V238l11.7-14.7
					L647.8,220.8L647.8,220.8z"/>
			</g>
		</g>
	</g>
	<g class="st18">
		<circle class="st27" cx="567.7" cy="295" r="26"/>
		<g>
			<g>
				<path class="st21" d="M583.7,283L572,294.8l12.2,12.3h-9.3l-7.3-8.3l-7.3,8.3h-9.1l12-12.1L551.7,283h9.3l6.7,7.9l7-7.9H583.7
					 M587.3,281.5h-3.6h-9.1H574l-0.4,0.5l-5.8,6.6l-5.6-6.6l-0.4-0.5H561h-9.3h-3.5l2.5,2.5l10.6,10.9l-11,11.1l-2.5,2.6h3.6h9.1
					h0.7l0.4-0.5l6.1-7.1l6.2,7.1l0.4,0.5h0.7h9.3h3.6l-2.5-2.6l-11.2-11.2l10.7-10.7L587.3,281.5L587.3,281.5z"/>
			</g>
		</g>
	</g>
	<g class="st18">
		<circle class="st28" cx="628.4" cy="355.7" r="26"/>
		<g>
			<g>
				<path class="st23" d="M632.9,343.7l13.2,24.1h-8l-2.5-4.9h-14.3l-2.6,4.9h-8l13.5-24.1H632.9 M623.5,358.8h9.9l-5-9.4
					L623.5,358.8 M633.8,342.2h-0.9h-8.7h-0.9L623,343L609.4,367l-1.3,2.2h2.6h8h0.9l0.4-0.8l2.1-4.1h12.4l2.1,4l0.4,0.8h0.9h8h2.5
					l-1.2-2.2L634.3,343L633.8,342.2L633.8,342.2z M626,357.3l2.5-4.7l2.5,4.7H626L626,357.3z"/>
			</g>
		</g>
	</g>
	<g class="st18">
		<circle class="st29" cx="689.1" cy="295" r="26"/>
		<g>
			<g>
				<path class="st25" d="M690.8,283c3.8,0,6.8,0.6,9,1.7c2.3,1.3,3.4,2.8,3.4,4.6c0,1.9-1.7,3.5-5.2,5c4.2,1.5,6.3,3.5,6.3,5.8
					c0,2.1-1.3,3.8-3.8,5.2c-2.2,1.2-5.4,1.7-9.6,1.7h-17.1V283H690.8 M681.7,292.6h8.5c3.7,0,5.5-0.9,5.5-2.7
					c0-1.8-1.8-2.7-5.5-2.7h-8.5V292.6 M681.7,302.9h9.3c3.9,0,5.8-1,5.8-3.1c0-2.1-1.9-3.1-5.8-3.1h-9.3V302.9 M690.8,281.5h-17
					h-1.5v1.5v24.1v1.5h1.5H691c4.5,0,7.8-0.6,10.3-1.9c3-1.6,4.6-3.8,4.6-6.5c0-2.3-1.5-4.3-4.3-5.9c2.2-1.4,3.2-3,3.2-4.9
					c0-2.4-1.4-4.4-4.2-5.9C698.2,282.2,694.9,281.5,690.8,281.5L690.8,281.5z M683.2,288.6h7c2,0,4,0.3,4,1.2c0,1.1-3.1,1.2-4,1.2
					h-7V288.6L683.2,288.6z M683.2,298.2h7.8c2,0,4.3,0.3,4.3,1.6c0,1.3-2.3,1.6-4.3,1.6h-7.8V298.2L683.2,298.2z"/>
			</g>
		</g>
	</g>
</g>
<g>
	<path class="st9" d="M295,262.4h6.1c1,0,1.7,0.2,2.1,0.5c0.4,0.3,0.6,0.9,0.6,1.7c0,0.9-0.4,1.4-1.1,1.6c0.5,0.1,0.8,0.2,1.1,0.5
		c0.2,0.3,0.3,0.7,0.3,1.3c0,0.8-0.2,1.4-0.6,1.8c-0.4,0.4-1.1,0.5-2,0.5H295c-0.3,0-0.5-0.1-0.6-0.2c-0.1-0.1-0.2-0.3-0.2-0.6v-6.4
		c0-0.3,0.1-0.5,0.2-0.6C294.5,262.5,294.7,262.4,295,262.4z M296,265.7h4.4c0.6,0,1,0,1.2-0.1c0.2-0.1,0.3-0.4,0.3-0.8
		c0-0.4-0.1-0.7-0.4-0.8c-0.2-0.1-0.5-0.2-1-0.2H296V265.7z M296,269h4.8c0.6,0,0.9-0.1,1.1-0.2c0.2-0.1,0.3-0.4,0.3-0.8
		c0-0.4-0.1-0.7-0.4-0.9c-0.2-0.1-0.6-0.2-1.2-0.2H296V269z"/>
	<path class="st9" d="M313.7,268.8h-5.7l-0.6,1c-0.1,0.2-0.2,0.4-0.4,0.5c-0.2,0.1-0.4,0.1-0.6,0.1h-0.6c-0.4,0-0.5-0.1-0.5-0.4
		c0-0.1,0-0.2,0.1-0.3l3.8-6.7c0.1-0.2,0.3-0.4,0.4-0.5s0.4-0.1,0.6-0.1h1.1c0.3,0,0.5,0,0.6,0.1c0.2,0.1,0.3,0.2,0.4,0.5l3.8,6.7
		c0.1,0.1,0.1,0.2,0.1,0.3c0,0.1,0,0.2-0.1,0.3c-0.1,0.1-0.2,0.1-0.4,0.1h-0.5c-0.2,0-0.4,0-0.6-0.1c-0.2-0.1-0.3-0.2-0.4-0.5
		L313.7,268.8z M313,267.5l-2.2-3.8l-2.1,3.8H313z"/>
	<path class="st9" d="M326.3,267.5h0.3c0.5,0,0.7,0.2,0.7,0.7c0,0.6-0.1,1.1-0.3,1.4c-0.3,0.3-0.6,0.6-1.2,0.7
		c-0.5,0.1-1.4,0.2-2.5,0.2c-1.8,0-2.9,0-3.4-0.1s-1-0.2-1.3-0.4c-0.4-0.2-0.8-0.7-0.9-1.3c-0.1-0.4-0.2-1.3-0.2-2.5
		c0-1.1,0.1-1.9,0.2-2.4c0.1-0.5,0.4-0.8,0.8-1.1c0.4-0.2,0.8-0.3,1.4-0.4s1.5-0.1,2.8-0.1c1.3,0,2.3,0.1,2.9,0.2s1,0.3,1.2,0.6
		c0.3,0.4,0.5,0.8,0.5,1.4c0,0.2-0.1,0.4-0.2,0.5c-0.1,0.1-0.3,0.2-0.5,0.2h-0.3c-0.4,0-0.7-0.2-0.7-0.5c-0.1-0.2-0.2-0.4-0.3-0.5
		s-0.4-0.2-0.8-0.2c-0.4,0-0.9-0.1-1.8-0.1c-0.9,0-1.6,0-2,0c-0.4,0-0.6,0.1-0.8,0.2c-0.2,0.1-0.4,0.3-0.4,0.6
		c-0.1,0.3-0.1,0.9-0.1,1.8c0,0.7,0,1.1,0.1,1.5s0.2,0.5,0.3,0.7c0.3,0.2,1,0.4,2,0.4c1.4,0,2.2,0,2.7-0.1c0.4,0,0.7-0.1,0.9-0.3
		c0.1-0.1,0.2-0.3,0.3-0.6C325.6,267.7,325.9,267.5,326.3,267.5z"/>
	<path class="st9" d="M331,265.6h1.3l3.3-2.6c0.3-0.2,0.6-0.4,0.8-0.5c0.2-0.1,0.5-0.1,0.8-0.1h1c0.2,0,0.3,0.1,0.3,0.3
		c0,0.1-0.1,0.2-0.2,0.3l-4.4,3.4l4.8,3.6c0.1,0.1,0.2,0.2,0.2,0.3c0,0.2-0.1,0.3-0.3,0.3h-1.1c-0.4,0-0.7,0-0.9-0.1
		c-0.2-0.1-0.5-0.2-0.8-0.5l-3.6-2.7H331v2.6c0,0.5-0.2,0.8-0.7,0.8h-0.4c-0.5,0-0.7-0.3-0.7-0.8v-6.4c0-0.5,0.2-0.8,0.7-0.8h0.4
		c0.5,0,0.7,0.3,0.7,0.8V265.6z"/>
</g>
<g>
	<path class="st9" d="M314.1,336.1l3.4-5.4c0.1-0.2,0.3-0.4,0.4-0.5c0.2-0.1,0.4-0.1,0.6-0.1h1.4c0.3,0,0.5,0.1,0.6,0.2
		c0.1,0.1,0.2,0.3,0.2,0.6v6.4c0,0.5-0.2,0.8-0.7,0.8h-0.3c-0.5,0-0.7-0.3-0.7-0.8l0.1-5.8l-3.8,6c-0.2,0.4-0.5,0.6-0.9,0.6h-0.3
		c-0.4,0-0.7-0.2-0.9-0.6l-3.7-6l0,5.8c0,0.5-0.2,0.8-0.7,0.8h-0.3c-0.5,0-0.7-0.3-0.7-0.8v-6.4c0-0.3,0.1-0.5,0.2-0.6
		c0.1-0.1,0.3-0.2,0.6-0.2h1.4c0.3,0,0.5,0,0.6,0.1c0.2,0.1,0.3,0.2,0.4,0.5L314.1,336.1z"/>
	<path class="st9" d="M329.1,330c1.1,0,1.8,0.1,2.3,0.2s0.9,0.3,1.2,0.6c0.3,0.4,0.5,0.9,0.6,1.7c0,0.3,0,0.9,0,1.7
		c0,1-0.1,1.7-0.2,2.2c-0.1,0.5-0.3,0.8-0.6,1.1c-0.4,0.4-1.1,0.6-1.9,0.6c-0.4,0-1.6,0.1-3.4,0.1c-1,0-1.7,0-2.2-0.1
		c-0.5-0.1-0.9-0.2-1.2-0.3c-0.4-0.2-0.7-0.6-0.8-1.1c-0.2-0.5-0.2-1.3-0.2-2.3c0-1.2,0-2,0.1-2.4c0.2-1.1,0.9-1.7,2.1-1.8
		C325.4,330,326.9,330,329.1,330z M328,331.5c-0.4,0-0.7,0-0.9,0s-0.5,0-0.7,0c-0.3,0-0.5,0-0.6,0c-0.1,0-0.3,0-0.4,0.1
		c-0.2,0.1-0.3,0.1-0.3,0.1c0,0-0.1,0.1-0.2,0.2s-0.1,0.2-0.1,0.3s0,0.2-0.1,0.5c0,0.2,0,0.4,0,0.5s0,0.4,0,0.7c0,0.4,0,0.6,0,0.8
		c0,0.2,0,0.4,0.1,0.6c0,0.2,0.1,0.4,0.1,0.5c0,0.1,0.1,0.2,0.3,0.3c0.1,0.1,0.3,0.2,0.4,0.2c0.1,0,0.3,0.1,0.6,0.1s0.5,0.1,0.8,0.1
		c0.2,0,0.6,0,1,0c1.1,0,1.9,0,2.3,0c0.4,0,0.7-0.1,0.9-0.2c0.2-0.1,0.4-0.3,0.5-0.7c0.1-0.3,0.1-0.9,0.1-1.7c0-0.3,0-0.5,0-0.7
		s0-0.3,0-0.5s0-0.4-0.1-0.4c0-0.1-0.1-0.2-0.1-0.3c-0.1-0.1-0.1-0.2-0.2-0.2c0,0-0.2-0.1-0.3-0.2c-0.2-0.1-0.3-0.1-0.4-0.1
		c-0.1,0-0.3,0-0.6,0c-0.3,0-0.5,0-0.7,0C328.7,331.5,328.4,331.5,328,331.5z"/>
	<path class="st9" d="M335.2,337.3v-6.4c0-0.3,0.1-0.5,0.2-0.6c0.1-0.1,0.3-0.2,0.6-0.2h5.9c1.5,0,2.5,0.3,3,0.9
		c0.2,0.3,0.4,0.7,0.5,1.2c0.1,0.5,0.2,1.2,0.2,2.1c0,0.9-0.1,1.6-0.2,2.1s-0.3,0.9-0.6,1.2c-0.5,0.5-1.4,0.7-2.7,0.7H336
		c-0.3,0-0.5-0.1-0.6-0.2C335.3,337.7,335.2,337.5,335.2,337.3z M337.1,336.6h4.6c0.6,0,1.1-0.1,1.4-0.3c0.4-0.2,0.7-0.9,0.7-2.1
		c0-0.6,0-1.1-0.1-1.4c0-0.3-0.2-0.6-0.3-0.8c-0.2-0.2-0.4-0.4-0.6-0.4c-0.3-0.1-0.6-0.1-1.1-0.1h-4.6V336.6z"/>
	<path class="st9" d="M349.3,331.4v1.9h5.7c0.5,0,0.8,0.2,0.8,0.6c0,0.4-0.3,0.6-0.8,0.6h-5.7v2h6c0.5,0,0.8,0.2,0.8,0.7v0.1
		c0,0.5-0.3,0.7-0.8,0.7h-7c-0.3,0-0.5-0.1-0.6-0.2c-0.1-0.1-0.2-0.3-0.2-0.6v-6.4c0-0.3,0.1-0.5,0.2-0.6c0.1-0.1,0.3-0.2,0.6-0.2
		h6.9c0.5,0,0.8,0.2,0.8,0.7v0.1c0,0.5-0.3,0.7-0.8,0.7H349.3z"/>
</g>
<g>
	<g>
		
			<linearGradient id="SVGID_00000119102271009752937770000005890151399701997442_" gradientUnits="userSpaceOnUse" x1="466.16" y1="327.5039" x2="466.16" y2="295.0359">
			<stop  offset="0" style="stop-color:#C9CBCD"/>
			<stop  offset="1" style="stop-color:#717980"/>
		</linearGradient>
		<path style="fill:url(#SVGID_00000119102271009752937770000005890151399701997442_);" d="M474.4,300c6.2,0,11.2,5,11.2,11.2
			s-5,11.2-11.2,11.2h-16.4c-6.2,0-11.2-5-11.2-11.2s5-11.2,11.2-11.2H474.4 M474.4,295h-16.4c-9,0-16.2,7.3-16.2,16.2
			c0,9,7.3,16.2,16.2,16.2h16.4c9,0,16.2-7.3,16.2-16.2C490.6,302.3,483.3,295,474.4,295L474.4,295z"/>
	</g>
	<g>
		<path class="st0" d="M457.9,323.3c-6.6,0-12-5.4-12-12c0-6.6,5.4-12,12-12h16.4c6.6,0,12,5.4,12,12c0,6.6-5.4,12-12,12H457.9z"/>
		<path d="M474.4,300c6.2,0,11.2,5,11.2,11.2s-5,11.2-11.2,11.2h-16.4c-6.2,0-11.2-5-11.2-11.2s5-11.2,11.2-11.2H474.4 M474.4,298.5
			h-16.4c-7,0-12.7,5.7-12.7,12.7s5.7,12.7,12.7,12.7h16.4c7,0,12.7-5.7,12.7-12.7S481.4,298.5,474.4,298.5L474.4,298.5z"/>
	</g>
</g>
<g>
	<path class="st9" d="M427.4,336.5l3.2-5.9c0.1-0.2,0.2-0.4,0.4-0.5c0.2-0.1,0.4-0.1,0.6-0.1h0.6c0.4,0,0.5,0.1,0.5,0.4
		c0,0.1,0,0.2-0.1,0.3l-3.7,6.7c-0.1,0.2-0.2,0.4-0.4,0.5c-0.2,0.1-0.4,0.1-0.6,0.1h-1c-0.3,0-0.5,0-0.6-0.1
		c-0.2-0.1-0.3-0.3-0.4-0.5l-3.6-6.7c-0.1-0.1-0.1-0.2-0.1-0.3c0-0.1,0-0.2,0.1-0.3c0.1-0.1,0.2-0.1,0.4-0.1h0.5
		c0.3,0,0.5,0,0.6,0.1c0.1,0.1,0.3,0.3,0.4,0.5L427.4,336.5z"/>
	<path class="st9" d="M434.3,337.2v-6.4c0-0.5,0.2-0.8,0.7-0.8h0.4c0.5,0,0.7,0.3,0.7,0.8v6.4c0,0.5-0.2,0.8-0.7,0.8H435
		C434.5,338,434.2,337.7,434.3,337.2z"/>
	<path class="st9" d="M439,330h6.1c1,0,1.7,0.2,2.1,0.5c0.4,0.3,0.6,0.9,0.6,1.7c0,0.9-0.4,1.4-1.1,1.6c0.5,0.1,0.8,0.2,1.1,0.5
		c0.2,0.3,0.3,0.7,0.3,1.3c0,0.8-0.2,1.4-0.6,1.8c-0.4,0.4-1.1,0.5-2,0.5H439c-0.3,0-0.5-0.1-0.6-0.2c-0.1-0.1-0.2-0.3-0.2-0.6v-6.4
		c0-0.3,0.1-0.5,0.2-0.6C438.6,330.1,438.8,330,439,330z M440.1,333.3h4.4c0.6,0,1,0,1.2-0.1c0.2-0.1,0.3-0.4,0.3-0.8
		c0-0.4-0.1-0.7-0.4-0.8c-0.2-0.1-0.5-0.2-1-0.2h-4.5V333.3z M440.1,336.6h4.8c0.6,0,0.9-0.1,1.1-0.2s0.3-0.4,0.3-0.8
		c0-0.4-0.1-0.7-0.4-0.9c-0.2-0.1-0.6-0.2-1.2-0.2h-4.6V336.6z"/>
	<path class="st9" d="M450.8,330h6c0.7,0,1.2,0,1.6,0.1c0.4,0.1,0.7,0.3,0.9,0.5c0.3,0.4,0.5,1,0.5,1.9c0,0.8-0.1,1.4-0.3,1.7
		c-0.2,0.3-0.6,0.4-1,0.5c0.5,0,0.8,0.2,1,0.4c0.2,0.2,0.2,0.6,0.2,1.3v0.8c0,0.5-0.2,0.8-0.7,0.8h-0.4c-0.5,0-0.7-0.3-0.7-0.8v-0.4
		c0-0.5-0.1-0.9-0.3-1.1c-0.2-0.2-0.6-0.2-1.2-0.2h-4.5v1.7c0,0.5-0.2,0.8-0.7,0.8h-0.4c-0.5,0-0.7-0.3-0.7-0.8v-6.4
		c0-0.3,0.1-0.5,0.2-0.6C450.4,330.1,450.6,330,450.8,330z M451.9,334h4.4c0.7,0,1.1-0.1,1.3-0.2c0.2-0.2,0.3-0.5,0.3-1
		c0-0.6-0.1-0.9-0.3-1.1s-0.7-0.3-1.3-0.3h-4.4V334z"/>
	<path class="st9" d="M469.6,336.4h-5.7l-0.6,1c-0.1,0.2-0.2,0.4-0.4,0.5c-0.2,0.1-0.4,0.1-0.6,0.1h-0.6c-0.4,0-0.5-0.1-0.5-0.4
		c0-0.1,0-0.2,0.1-0.3l3.8-6.7c0.1-0.2,0.3-0.4,0.4-0.5c0.2-0.1,0.4-0.1,0.6-0.1h1.1c0.3,0,0.5,0,0.6,0.1s0.3,0.2,0.4,0.5l3.8,6.7
		c0.1,0.1,0.1,0.2,0.1,0.3c0,0.1,0,0.2-0.1,0.3c-0.1,0.1-0.2,0.1-0.4,0.1h-0.5c-0.2,0-0.4,0-0.6-0.1c-0.2-0.1-0.3-0.2-0.4-0.5
		L469.6,336.4z M468.9,335.1l-2.2-3.8l-2.1,3.8H468.9z"/>
	<path class="st9" d="M475.3,331.5h-3c-0.5,0-0.8-0.2-0.8-0.7v-0.2c0-0.5,0.3-0.7,0.8-0.7h7.8c0.5,0,0.8,0.2,0.8,0.7v0.2
		c0,0.5-0.3,0.7-0.8,0.7h-3v5.7c0,0.5-0.2,0.8-0.7,0.8H476c-0.5,0-0.8-0.3-0.7-0.8V331.5z"/>
	<path class="st9" d="M482.4,337.2v-6.4c0-0.5,0.2-0.8,0.7-0.8h0.4c0.5,0,0.7,0.3,0.7,0.8v6.4c0,0.5-0.2,0.8-0.7,0.8h-0.4
		C482.6,338,482.4,337.7,482.4,337.2z"/>
	<path class="st9" d="M492.7,329.9c1.1,0,1.8,0.1,2.3,0.2s0.9,0.3,1.2,0.6c0.3,0.4,0.5,0.9,0.6,1.7c0,0.3,0,0.9,0,1.7
		c0,1-0.1,1.7-0.2,2.2c-0.1,0.5-0.3,0.8-0.6,1.1c-0.4,0.4-1.1,0.6-1.9,0.6c-0.4,0-1.6,0.1-3.4,0.1c-1,0-1.7,0-2.2-0.1
		c-0.5-0.1-0.9-0.2-1.2-0.3c-0.4-0.2-0.7-0.6-0.8-1.1c-0.2-0.5-0.2-1.3-0.2-2.3c0-1.2,0-2,0.1-2.4c0.2-1.1,0.9-1.7,2.1-1.8
		C489,330,490.4,329.9,492.7,329.9z M491.6,331.4c-0.4,0-0.7,0-0.9,0s-0.5,0-0.7,0c-0.3,0-0.5,0-0.6,0s-0.3,0-0.4,0.1
		c-0.2,0.1-0.3,0.1-0.3,0.1c0,0-0.1,0.1-0.2,0.2s-0.1,0.2-0.1,0.3s0,0.2-0.1,0.5c0,0.2,0,0.4,0,0.5s0,0.4,0,0.7c0,0.4,0,0.6,0,0.8
		c0,0.2,0,0.4,0.1,0.6c0,0.2,0.1,0.4,0.1,0.5c0,0.1,0.1,0.2,0.3,0.3c0.1,0.1,0.3,0.2,0.4,0.2c0.1,0,0.3,0.1,0.6,0.1
		c0.3,0,0.5,0.1,0.8,0.1c0.2,0,0.6,0,1,0c1.1,0,1.9,0,2.3,0c0.4,0,0.7-0.1,0.9-0.2c0.2-0.1,0.4-0.3,0.5-0.7c0.1-0.3,0.1-0.9,0.1-1.7
		c0-0.3,0-0.5,0-0.7s0-0.3,0-0.5c0-0.2,0-0.4-0.1-0.4c0-0.1-0.1-0.2-0.1-0.3c-0.1-0.1-0.1-0.2-0.2-0.2c0,0-0.2-0.1-0.3-0.2
		c-0.2-0.1-0.3-0.1-0.4-0.1c-0.1,0-0.3,0-0.6,0s-0.5,0-0.7,0C492.3,331.4,492,331.4,491.6,331.4z"/>
	<path class="st9" d="M507.7,336.7l0-5.9c0-0.5,0.2-0.8,0.7-0.8h0.3c0.5,0,0.7,0.3,0.7,0.8v6.4c0,0.3-0.1,0.5-0.2,0.6
		c-0.1,0.1-0.3,0.2-0.6,0.2h-1.3c-0.3,0-0.6,0-0.7-0.1c-0.2-0.1-0.4-0.2-0.6-0.5l-5.5-6l0,5.8c0,0.5-0.2,0.8-0.7,0.8h-0.3
		c-0.5,0-0.7-0.3-0.7-0.8v-6.4c0-0.3,0.1-0.5,0.2-0.6c0.1-0.1,0.3-0.2,0.6-0.2h1.3c0.3,0,0.6,0,0.7,0.1c0.2,0.1,0.4,0.2,0.6,0.5
		L507.7,336.7z"/>
</g>
<g>
	<path class="st9" d="M455.4,269.1h0.4c0.4,0,0.7,0.2,0.7,0.6c0,0.3,0.2,0.5,0.5,0.5c0.3,0.1,0.9,0.1,1.7,0.1c0.9,0,1.8,0,2.6-0.1
		c0.4-0.1,0.7-0.2,0.8-0.3c0.2-0.2,0.2-0.4,0.2-0.7c0-0.2-0.1-0.4-0.2-0.6c-0.1-0.1-0.3-0.2-0.6-0.3c-0.2,0-1.1-0.1-2.5-0.1H458
		c-0.8,0-1.5,0-1.9-0.1c-0.4-0.1-0.7-0.2-0.9-0.4c-0.4-0.3-0.6-0.9-0.6-1.5c0-1,0.2-1.6,0.6-2c0.3-0.2,0.7-0.4,1.4-0.5
		s1.7-0.2,3-0.2c1,0,1.8,0,2.3,0.1c0.5,0.1,0.9,0.2,1.2,0.4c0.5,0.3,0.7,0.7,0.7,1.3c0,0.2-0.1,0.4-0.2,0.5s-0.3,0.2-0.5,0.2h-0.3
		c-0.2,0-0.4,0-0.5-0.1s-0.2-0.2-0.4-0.5c-0.1-0.2-0.4-0.3-0.8-0.4c-0.5-0.1-1-0.1-1.4-0.1c-1.6,0-2.6,0.1-2.9,0.3
		c-0.3,0.1-0.4,0.4-0.4,0.8c0,0.3,0.1,0.6,0.3,0.7c0.2,0.1,0.9,0.2,2,0.2h1.4c1.2,0,2,0,2.5,0.1s0.9,0.3,1.1,0.5
		c0.3,0.3,0.5,0.9,0.5,1.7c0,0.8-0.2,1.4-0.6,1.8c-0.3,0.3-0.7,0.4-1.3,0.5c-0.6,0.1-1.6,0.1-2.9,0.1c-1.6,0-2.6,0-3.2-0.1
		c-0.6-0.1-1-0.3-1.2-0.6c-0.2-0.3-0.3-0.6-0.3-1.1C454.7,269.4,455,269.1,455.4,269.1z"/>
	<path class="st9" d="M469.2,265.1h-3c-0.5,0-0.8-0.2-0.8-0.7v-0.2c0-0.5,0.3-0.7,0.8-0.7h7.8c0.5,0,0.8,0.2,0.8,0.7v0.2
		c0,0.5-0.3,0.7-0.8,0.7h-3v5.7c0,0.5-0.2,0.8-0.7,0.8h-0.4c-0.5,0-0.8-0.3-0.7-0.8V265.1z"/>
	<path class="st9" d="M482.4,270.1h-5.7l-0.6,1c-0.1,0.2-0.2,0.4-0.4,0.5c-0.2,0.1-0.4,0.1-0.6,0.1h-0.6c-0.4,0-0.5-0.1-0.5-0.4
		c0-0.1,0-0.2,0.1-0.3l3.8-6.7c0.1-0.2,0.3-0.4,0.4-0.5c0.2-0.1,0.4-0.1,0.6-0.1h1.1c0.3,0,0.5,0,0.6,0.1s0.3,0.2,0.4,0.5l3.8,6.7
		c0.1,0.1,0.1,0.2,0.1,0.3c0,0.1,0,0.2-0.1,0.3c-0.1,0.1-0.2,0.1-0.4,0.1H484c-0.2,0-0.4,0-0.6-0.1c-0.2-0.1-0.3-0.2-0.4-0.5
		L482.4,270.1z M481.7,268.8l-2.2-3.8l-2.1,3.8H481.7z"/>
	<path class="st9" d="M487.2,263.6h6c0.7,0,1.2,0,1.6,0.1c0.4,0.1,0.7,0.3,0.9,0.5c0.3,0.4,0.5,1,0.5,1.9c0,0.8-0.1,1.4-0.3,1.7
		c-0.2,0.3-0.6,0.4-1,0.5c0.5,0,0.8,0.2,1,0.4c0.2,0.2,0.2,0.6,0.2,1.3v0.8c0,0.5-0.2,0.8-0.7,0.8h-0.4c-0.5,0-0.7-0.3-0.7-0.8v-0.4
		c0-0.5-0.1-0.9-0.3-1.1c-0.2-0.2-0.6-0.2-1.2-0.2h-4.5v1.7c0,0.5-0.2,0.8-0.7,0.8h-0.4c-0.5,0-0.7-0.3-0.7-0.8v-6.4
		c0-0.3,0.1-0.5,0.2-0.6C486.7,263.7,486.9,263.6,487.2,263.6z M488.2,267.7h4.4c0.7,0,1.1-0.1,1.3-0.2c0.2-0.2,0.3-0.5,0.3-1
		c0-0.6-0.1-0.9-0.3-1.1s-0.7-0.3-1.3-0.3h-4.4V267.7z"/>
	<path class="st9" d="M501.2,265.1h-3c-0.5,0-0.8-0.2-0.8-0.7v-0.2c0-0.5,0.3-0.7,0.8-0.7h7.8c0.5,0,0.8,0.2,0.8,0.7v0.2
		c0,0.5-0.3,0.7-0.8,0.7h-3v5.7c0,0.5-0.2,0.8-0.7,0.8H502c-0.5,0-0.8-0.3-0.7-0.8V265.1z"/>
</g>
<g>
	<circle cx="167.9" cy="299.7" r="70"/>
	<circle class="st31" cx="167.9" cy="299.7" r="63.2"/>
	<g>
		<g>
			<path class="st31" d="M185.8,318.3v-37.2h41.8c2,0,3.7,1.3,4.1,3.2c1.2,5,1.8,10.2,1.8,15.3s-0.6,10.3-1.8,15.3
				c-0.5,1.9-2.2,3.2-4.1,3.2H185.8z"/>
			<path d="M227.6,281.5c1.8,0,3.3,1.2,3.8,3c1.2,4.9,1.8,10,1.8,15.3c0,5.3-0.6,10.4-1.8,15.3c-0.4,1.7-2,3-3.8,3h-41.5v-36.4
				H227.6 M227.6,280.8h-41.5h-0.8v0.8v36.4v0.8h0.8h41.5c2.1,0,4-1.4,4.5-3.5c1.2-5.1,1.8-10.2,1.8-15.4c0-5.2-0.6-10.4-1.8-15.4
				C231.6,282.2,229.7,280.8,227.6,280.8L227.6,280.8z"/>
		</g>
		<g>
			<path class="st31" d="M108.3,318.3c-2,0-3.7-1.3-4.1-3.2c-1.2-5-1.8-10.2-1.8-15.3c0-5.2,0.6-10.3,1.8-15.3
				c0.5-1.9,2.2-3.2,4.1-3.2h41.8v37.2H108.3z"/>
			<path d="M149.7,281.5v36.4h-41.5c-1.8,0-3.3-1.2-3.8-3c-1.2-4.9-1.8-10-1.8-15.3c0-5.3,0.6-10.4,1.8-15.3c0.4-1.7,2-3,3.8-3
				H149.7 M150.5,280.8h-0.8h-41.5c-2.1,0-4,1.4-4.5,3.5c-1.2,5.1-1.8,10.2-1.8,15.4c0,5.2,0.6,10.4,1.8,15.4
				c0.5,2.1,2.3,3.5,4.5,3.5h41.5h0.8v-0.8v-36.4V280.8L150.5,280.8z"/>
		</g>
		<g>
			<path class="st31" d="M167.9,363.3c-27.9,0-53-18.7-61-45.4l0-0.1v-36.3l0-0.1c8-26.7,33-45.4,61-45.4c27.9,0,53,18.7,61,45.4
				l0,0.1v36.3l0,0.1C220.9,344.7,195.9,363.3,167.9,363.3z"/>
			<path d="M167.9,236.5c28.6,0,52.8,19,60.6,45.1v36.2c-7.8,26.1-32,45.1-60.6,45.1c-28.6,0-52.8-19-60.6-45.1v-36.2
				C115.1,255.5,139.3,236.5,167.9,236.5 M167.9,235.8c-14.1,0-27.4,4.5-38.6,12.9c-10.8,8.2-18.9,19.8-22.7,32.7l0,0.1v0.1v36.2
				v0.1l0,0.1c3.9,12.9,11.9,24.6,22.7,32.7c11.2,8.5,24.5,12.9,38.6,12.9c14.1,0,27.4-4.5,38.6-12.9c10.8-8.2,18.9-19.8,22.7-32.7
				l0-0.1v-0.1v-36.2v-0.1l0-0.1c-3.9-12.9-11.9-24.6-22.7-32.7C195.3,240.2,182,235.8,167.9,235.8L167.9,235.8z"/>
		</g>
		<g>
			<path class="st31" d="M167.9,365.3c-5.2,0-10.3-0.6-15.3-1.8c-1.9-0.5-3.2-2.2-3.2-4.1v-41.8h37.2v41.8c0,2-1.3,3.7-3.2,4.1
				C178.3,364.7,173.1,365.3,167.9,365.3z"/>
			<path d="M186.1,317.9v41.5c0,1.8-1.2,3.3-3,3.8c-4.9,1.2-10,1.8-15.3,1.8c-5.3,0-10.4-0.6-15.3-1.8c-1.7-0.4-3-2-3-3.8v-41.5
				H186.1 M186.9,317.2h-0.8h-36.4H149v0.8v41.5c0,2.1,1.4,4,3.5,4.5c5.1,1.2,10.2,1.8,15.4,1.8c5.2,0,10.4-0.6,15.4-1.8
				c2.1-0.5,3.5-2.3,3.5-4.5v-41.5V317.2L186.9,317.2z"/>
		</g>
	</g>
</g>
<g>
	<g>
		<circle class="st32" cx="167.9" cy="292.7" r="62.8"/>
		<path d="M167.9,230.3c34.4,0,62.5,28,62.5,62.5s-28,62.5-62.5,62.5s-62.5-28-62.5-62.5S133.5,230.3,167.9,230.3 M167.9,229.5
			c-34.9,0-63.2,28.3-63.2,63.2S133,356,167.9,356s63.2-28.3,63.2-63.2S202.8,229.5,167.9,229.5L167.9,229.5z"/>
	</g>
	<g>
		<g>
			<path class="st0" d="M167.9,358.3c-5.2,0-10.3-0.6-15.3-1.8c-1.9-0.5-3.2-2.2-3.2-4.1v-37c0-2.2-1.8-4.1-4.1-4.1h-37
				c-2,0-3.7-1.3-4.1-3.2c-1.2-5-1.8-10.2-1.8-15.3c0-5.2,0.6-10.3,1.8-15.3c0.5-1.9,2.2-3.2,4.1-3.2h37c2.2,0,4.1-1.8,4.1-4.1v-37
				c0-2,1.3-3.7,3.2-4.1c5-1.2,10.2-1.8,15.3-1.8c5.2,0,10.3,0.6,15.3,1.8c1.9,0.5,3.2,2.2,3.2,4.1v37c0,2.2,1.8,4.1,4.1,4.1h37
				c2,0,3.7,1.3,4.1,3.2c1.2,5,1.8,10.2,1.8,15.3s-0.6,10.3-1.8,15.3c-0.5,1.9-2.2,3.2-4.1,3.2h-37c-2.2,0-4.1,1.8-4.1,4.1v37
				c0,2-1.3,3.7-3.2,4.1C178.3,357.7,173.1,358.3,167.9,358.3z"/>
			<path d="M167.9,227.5c5.3,0,10.4,0.6,15.3,1.8c1.7,0.4,3,2,3,3.8v37c0,2.5,2,4.4,4.4,4.4h37c1.8,0,3.3,1.2,3.8,3
				c1.2,4.9,1.8,10,1.8,15.3c0,5.3-0.6,10.4-1.8,15.3c-0.4,1.7-2,3-3.8,3h-37c-2.5,0-4.4,2-4.4,4.4v37c0,1.8-1.2,3.3-3,3.8
				c-4.9,1.2-10,1.8-15.3,1.8c-5.3,0-10.4-0.6-15.3-1.8c-1.7-0.4-3-2-3-3.8v-37c0-2.5-2-4.4-4.4-4.4h-37c-1.8,0-3.3-1.2-3.8-3
				c-1.2-4.9-1.8-10-1.8-15.3c0-5.3,0.6-10.4,1.8-15.3c0.4-1.7,2-3,3.8-3h37c2.5,0,4.4-2,4.4-4.4v-37c0-1.8,1.2-3.3,3-3.8
				C157.6,228.1,162.7,227.5,167.9,227.5 M167.9,226.8c-5.2,0-10.4,0.6-15.4,1.8c-2.1,0.5-3.5,2.3-3.5,4.5v37c0,2-1.7,3.7-3.7,3.7
				h-37c-2.1,0-4,1.4-4.5,3.5c-1.2,5.1-1.8,10.2-1.8,15.4c0,5.2,0.6,10.4,1.8,15.4c0.5,2.1,2.3,3.5,4.5,3.5h37c2,0,3.7,1.7,3.7,3.7
				v37c0,2.1,1.4,4,3.5,4.5c5.1,1.2,10.2,1.8,15.4,1.8c5.2,0,10.4-0.6,15.4-1.8c2.1-0.5,3.5-2.3,3.5-4.5v-37c0-2,1.7-3.7,3.7-3.7h37
				c2.1,0,4-1.4,4.5-3.5c1.2-5.1,1.8-10.2,1.8-15.4c0-5.2-0.6-10.4-1.8-15.4c-0.5-2.1-2.3-3.5-4.5-3.5h-37c-2,0-3.7-1.7-3.7-3.7v-37
				c0-2.1-1.4-4-3.5-4.5C178.3,227.4,173.1,226.8,167.9,226.8L167.9,226.8z"/>
		</g>
		<path class="st33" d="M104.5,293.6l5.1,9.4c0.2,0.4,0.9,0.3,0.9-0.2v-20.1c0-0.5-0.6-0.6-0.9-0.2l-5.1,9.4
			C104.2,292.4,104.2,293.1,104.5,293.6z"/>
		<path class="st33" d="M167,229.3l-9.4,5.1c-0.4,0.2-0.3,0.9,0.2,0.9H178c0.5,0,0.6-0.6,0.2-0.9l-9.4-5.1
			C168.3,229,167.6,229,167,229.3z"/>
		<path class="st33" d="M231.4,291.8l-5.1-9.4c-0.2-0.4-0.9-0.3-0.9,0.2v20.1c0,0.5,0.6,0.6,0.9,0.2l5.1-9.4
			C231.7,293.1,231.7,292.4,231.4,291.8z"/>
		<path class="st33" d="M168.8,356.2l9.4-5.1c0.4-0.2,0.3-0.9-0.2-0.9h-20.1c-0.5,0-0.6,0.6-0.2,0.9l9.4,5.1
			C167.6,356.5,168.3,356.5,168.8,356.2z"/>
	</g>
</g>
</svg>
