<?xml version="1.0" encoding="utf-8"?>
<!-- Generator: Adobe Illustrator 25.4.1, SVG Export Plug-In . SVG Version: 6.00 Build 0)  -->
<svg version="1.1" id="Layer_1" xmlns="http://www.w3.org/2000/svg" xmlns:xlink="http://www.w3.org/1999/xlink" x="0px" y="0px"
	 width="796.6px" height="596.8px" viewBox="0 0 796.6 596.8" style="enable-background:new 0 0 796.6 596.8;" xml:space="preserve"
	>
<style type="text/css">
	.st0{fill:#ED1C24;}
	.st1{fill:#FFFFFF;}
</style>
<g>
	<path class="st0" d="M668.1,28.1C663.5,12,656.5,6.6,644.9,3.5c-6.2-1.6-11.9-2.6-15.8-3c-4.8-0.5-12-1.5-18.3,2
		c-8.8,4.9-9.6,27.2-9.6,27.2v68.3h75C676.1,98.1,673.3,46.1,668.1,28.1z"/>
	<path class="st0" d="M195.5,29.7c0,0-0.8-22.3-9.6-27.2c-6.3-3.5-13.5-2.5-18.3-2c-3.9,0.4-9.6,1.4-15.8,3
		c-11.6,3-18.6,8.4-23.3,24.5c-5.2,18-8,70-8,70h75V29.7z"/>
	<path class="st0" d="M762,570.9c0,0,0.1-0.1,0.1-0.1c0.5-0.6,1.1-1.2,1.6-1.8c0-0.1,0.1-0.1,0.1-0.2c0.5-0.6,1-1.2,1.5-1.8
		c0.1-0.1,0.1-0.1,0.2-0.2c0.5-0.6,1-1.2,1.5-1.8c0.1-0.1,0.1-0.2,0.2-0.3c0.5-0.6,0.9-1.2,1.4-1.9c0.1-0.1,0.2-0.2,0.2-0.3
		c0.4-0.6,0.9-1.2,1.3-1.9c0.1-0.1,0.2-0.2,0.3-0.4c0.4-0.6,0.8-1.2,1.3-1.9c0.1-0.1,0.2-0.3,0.3-0.4c0.4-0.6,0.8-1.2,1.2-1.9
		c0.1-0.2,0.2-0.3,0.3-0.5c0.4-0.6,0.8-1.3,1.1-1.9c0.1-0.2,0.2-0.3,0.3-0.5c0.4-0.6,0.7-1.3,1.1-1.9c0.1-0.2,0.2-0.4,0.3-0.6
		c0.3-0.6,0.7-1.3,1-1.9c0.1-0.2,0.2-0.4,0.3-0.6c0.3-0.6,0.7-1.3,1-1.9c0.1-0.2,0.2-0.4,0.3-0.7c0.3-0.6,0.6-1.3,0.9-1.9
		c0.1-0.2,0.2-0.5,0.3-0.7c0.3-0.6,0.6-1.3,0.9-1.9c0.1-0.3,0.2-0.5,0.3-0.8c0.3-0.6,0.6-1.3,0.8-1.9c0.1-0.3,0.2-0.6,0.3-0.8
		c0.3-0.6,0.5-1.3,0.8-1.9c0.1-0.3,0.2-0.6,0.3-0.9c0.2-0.6,0.5-1.3,0.7-1.9c0.1-0.3,0.2-0.6,0.3-0.9c0.2-0.6,0.5-1.3,0.7-1.9
		c0.1-0.3,0.2-0.7,0.3-1c0.2-0.6,0.4-1.3,0.6-1.9c0.1-0.3,0.2-0.7,0.3-1c0.2-0.6,0.4-1.3,0.6-1.9c0.1-0.4,0.2-0.7,0.3-1.1
		c0.2-0.6,0.4-1.3,0.6-1.9c0.1-0.4,0.2-0.7,0.3-1.1c0.2-0.6,0.4-1.3,0.5-2c0.1-0.4,0.2-0.8,0.3-1.2c0.2-0.6,0.3-1.3,0.5-1.9
		c0.1-0.4,0.2-0.8,0.3-1.2c0.2-0.6,0.3-1.3,0.5-2c0.1-0.4,0.2-0.8,0.3-1.3c0.1-0.7,0.3-1.3,0.4-2c0.1-0.4,0.2-0.9,0.3-1.3
		c0.1-0.7,0.3-1.3,0.4-2c0.1-0.5,0.2-0.9,0.3-1.4c0.1-0.7,0.2-1.3,0.4-2c0.1-0.5,0.2-0.9,0.2-1.4c0.1-0.7,0.2-1.4,0.3-2.1
		c0.1-0.5,0.1-0.9,0.2-1.4c0.1-0.7,0.2-1.4,0.3-2.2c0.1-0.4,0.1-0.9,0.2-1.3c0.1-0.8,0.2-1.6,0.3-2.3c0-0.4,0.1-0.8,0.2-1.2
		c0.1-1.2,0.3-2.4,0.4-3.6c0.2-1.8,0.3-3.5,0.5-5.3c0-0.5,0.1-0.9,0.1-1.4c0.1-1.6,0.3-3.2,0.4-4.9c0-0.2,0-0.4,0-0.6
		c0.1-1.8,0.2-3.6,0.3-5.4c0-0.5,0-0.9,0.1-1.4c0.1-1.6,0.1-3.2,0.2-4.7c0-0.3,0-0.6,0-0.9c0-1.8,0.1-3.7,0.1-5.6c0-0.5,0-0.9,0-1.4
		c0-1.6,0-3.1,0-4.7c0-0.4,0-0.8,0-1.2c0-1.9,0-3.8-0.1-5.7c0-0.4,0-0.9,0-1.3c0-1.6-0.1-3.2-0.1-4.7c0-0.5,0-0.9,0-1.4
		c-0.1-1.9-0.1-3.8-0.2-5.7c0-0.4,0-0.8-0.1-1.2c-0.1-1.6-0.2-3.2-0.3-4.9c0-0.5-0.1-1-0.1-1.4c-0.1-1.9-0.2-3.9-0.4-5.8
		c0-0.3,0-0.6-0.1-0.9c-0.1-1.7-0.3-3.4-0.4-5.1c0-0.5-0.1-1-0.1-1.5c-0.2-2-0.3-3.9-0.5-5.9c0-0.1,0-0.3,0-0.4
		c-0.2-1.8-0.4-3.7-0.5-5.5c-0.1-0.5-0.1-1-0.2-1.5c-0.2-1.9-0.4-3.8-0.6-5.7c0-0.1,0-0.1,0-0.2c-0.2-2-0.5-3.9-0.7-5.9
		c-0.1-0.5-0.1-1-0.2-1.5c-0.2-1.8-0.4-3.5-0.7-5.3c0-0.2-0.1-0.4-0.1-0.7c-0.3-1.9-0.5-3.9-0.8-5.8c-0.1-0.5-0.1-0.9-0.2-1.4
		c-0.2-1.7-0.5-3.4-0.7-5c0-0.3-0.1-0.6-0.1-0.9c-0.3-1.9-0.6-3.8-0.9-5.7c-0.1-0.4-0.1-0.8-0.2-1.2c-0.3-1.6-0.5-3.3-0.8-4.9
		c-0.1-0.3-0.1-0.7-0.2-1c-0.3-1.9-0.6-3.8-0.9-5.6c-0.1-0.3-0.1-0.7-0.2-1c-0.3-1.6-0.6-3.3-0.8-4.9c-0.1-0.4-0.1-0.7-0.2-1.1
		c-0.3-1.9-0.7-3.7-1-5.5c0-0.2-0.1-0.4-0.1-0.7c-0.3-1.6-0.6-3.3-0.9-4.9c-0.1-0.3-0.1-0.7-0.2-1c-0.3-1.8-0.7-3.6-1.1-5.4
		c0-0.1,0-0.2,0-0.2c-0.3-1.7-0.7-3.4-1-5.1c-0.1-0.3-0.1-0.7-0.2-1c-0.7-3.5-1.4-6.9-2.2-10.3c-0.1-0.3-0.1-0.6-0.2-0.9
		c-0.7-3.4-1.5-6.7-2.2-9.9c-0.1-0.2-0.1-0.5-0.2-0.7c-0.4-1.6-0.7-3.1-1.1-4.7c0,0,0,0,0,0l0,0c-0.1-0.5-0.2-1-0.3-1.4
		c0-0.1,0-0.1,0-0.2c-0.3-1.1-0.5-2.2-0.8-3.2c0-0.1-0.1-0.2-0.1-0.3c-0.2-1-0.5-2-0.7-3c0-0.2-0.1-0.3-0.1-0.5
		c-0.2-0.9-0.5-1.8-0.7-2.8c0-0.2-0.1-0.4-0.1-0.6c-0.2-0.9-0.4-1.7-0.6-2.6c-0.1-0.2-0.1-0.4-0.2-0.6c-0.2-0.8-0.4-1.6-0.6-2.4
		c-0.1-0.2-0.1-0.5-0.2-0.7c-0.2-0.7-0.4-1.5-0.6-2.2c-0.1-0.3-0.1-0.5-0.2-0.8c-0.2-0.7-0.4-1.4-0.5-2.1c-0.1-0.3-0.1-0.5-0.2-0.8
		c-0.2-0.7-0.3-1.3-0.5-1.9c-0.1-0.3-0.1-0.5-0.2-0.8c-0.2-0.6-0.3-1.2-0.5-1.8c-0.1-0.3-0.2-0.5-0.2-0.8c-0.2-0.6-0.3-1.1-0.5-1.6
		c-0.1-0.3-0.2-0.6-0.2-0.9c-0.1-0.5-0.3-1-0.4-1.5c-0.1-0.3-0.2-0.6-0.2-0.8c-0.1-0.5-0.3-1-0.4-1.4c-0.1-0.3-0.2-0.6-0.2-0.8
		c-0.1-0.4-0.3-0.9-0.4-1.3c-0.1-0.3-0.2-0.6-0.3-0.8c-0.1-0.4-0.3-0.8-0.4-1.3c-0.1-0.2-0.2-0.5-0.2-0.7c-0.1-0.4-0.3-0.9-0.4-1.3
		c-0.1-0.2-0.1-0.4-0.2-0.6c-0.2-0.6-0.4-1.2-0.6-1.7c-20.5-62.6-36.5-96.8-88.5-110.7c0,0,0,0,0,0v-4.1c0-1-0.5-1.9-1.2-2.5
		l-11.6-9c-0.5-0.4-1.1-0.6-1.7-0.7l-50.9-3.9c-0.7-0.1-1.4,0.1-2,0.5l-8.8,5.6c-0.9,0.6-1.5,1.6-1.5,2.7v3.2
		c-8.4-0.1-16.3,0.2-22.8,1c-16,2.1-43,6.9-54.1,26.6c-12.5,22.4-15.8,40.7-68,36.4c-20.2-1.7-37.9-2.9-53.7-2.9c0,0,0,0,0,0
		c-15.7,0-33.5,1.2-53.7,2.9c-52.1,4.3-55.4-14.1-68-36.4c-11-19.7-38-24.5-54.1-26.6c-6.5-0.8-14.4-1.1-22.8-1v-3.2
		c0-1.1-0.6-2.1-1.5-2.7l-8.8-5.6c-0.6-0.4-1.3-0.5-2-0.5l-50.9,3.9c-0.6,0-1.2,0.3-1.7,0.7l-11.6,9c-0.8,0.6-1.2,1.5-1.2,2.5v4.1
		c0,0,0,0,0,0c-52,14-68,48.1-88.5,110.7c-0.2,0.6-0.4,1.1-0.6,1.7c-0.1,0.2-0.1,0.4-0.2,0.6c-0.1,0.4-0.3,0.8-0.4,1.3
		c-0.1,0.2-0.2,0.5-0.2,0.7c-0.1,0.4-0.3,0.8-0.4,1.3c-0.1,0.3-0.2,0.6-0.3,0.8c-0.1,0.4-0.3,0.9-0.4,1.3c-0.1,0.3-0.2,0.6-0.2,0.8
		c-0.1,0.5-0.3,0.9-0.4,1.4c-0.1,0.3-0.2,0.6-0.2,0.8c-0.1,0.5-0.3,1-0.4,1.5c-0.1,0.3-0.2,0.6-0.2,0.9c-0.2,0.5-0.3,1.1-0.5,1.6
		c-0.1,0.3-0.2,0.5-0.2,0.8c-0.2,0.6-0.3,1.2-0.5,1.8c-0.1,0.3-0.1,0.5-0.2,0.8c-0.2,0.6-0.3,1.3-0.5,1.9c-0.1,0.3-0.1,0.5-0.2,0.8
		c-0.2,0.7-0.4,1.4-0.5,2.1c-0.1,0.3-0.1,0.5-0.2,0.8c-0.2,0.7-0.4,1.4-0.6,2.2c-0.1,0.2-0.1,0.5-0.2,0.7c-0.2,0.8-0.4,1.6-0.6,2.4
		c-0.1,0.2-0.1,0.4-0.2,0.6c-0.2,0.8-0.4,1.7-0.6,2.6c0,0.2-0.1,0.4-0.1,0.6c-0.2,0.9-0.5,1.8-0.7,2.8c0,0.2-0.1,0.3-0.1,0.5
		c-0.2,1-0.5,2-0.7,3c0,0.1-0.1,0.2-0.1,0.3c-0.3,1.1-0.5,2.1-0.8,3.2c0,0.1,0,0.1,0,0.2c-0.1,0.5-0.2,1-0.3,1.5c0,0,0,0,0,0
		c-0.1,0.4-0.2,0.9-0.3,1.3c-0.2,0.9-0.4,1.7-0.6,2.6c-0.2,0.7-0.3,1.3-0.5,2c-0.2,1-0.5,2.1-0.7,3.1c-0.2,0.9-0.4,1.7-0.6,2.6
		c-0.2,1-0.4,1.9-0.6,2.9c-0.2,0.7-0.3,1.4-0.5,2.1c-0.2,1-0.4,2-0.7,3.1c-0.2,0.9-0.4,1.8-0.6,2.7c-0.2,1.1-0.5,2.2-0.7,3.3
		c-0.2,0.7-0.3,1.5-0.4,2.2c-0.2,1-0.4,2.1-0.6,3.1c-0.2,0.8-0.3,1.6-0.5,2.4c-0.3,1.4-0.5,2.8-0.8,4.1c-0.1,0.7-0.3,1.5-0.4,2.2
		c-0.2,1-0.4,2.1-0.6,3.2c-0.1,0.7-0.3,1.4-0.4,2.1c-0.3,1.6-0.6,3.1-0.9,4.7c-0.1,0.7-0.3,1.5-0.4,2.2c-0.2,1.1-0.4,2.2-0.6,3.3
		c-0.1,0.7-0.3,1.5-0.4,2.2c-0.3,1.6-0.5,3.2-0.8,4.9c-0.1,0.7-0.2,1.5-0.4,2.2c-0.2,1.1-0.4,2.2-0.5,3.4c-0.1,0.8-0.2,1.5-0.4,2.3
		c-0.3,1.7-0.5,3.3-0.8,5c-0.1,0.7-0.2,1.4-0.3,2.1c-0.2,1.2-0.3,2.4-0.5,3.6c-0.1,0.8-0.2,1.5-0.3,2.3c-0.2,1.6-0.4,3.3-0.7,4.9
		c-0.1,0.7-0.2,1.4-0.3,2.1c-0.2,1.3-0.3,2.5-0.5,3.8c-0.1,0.8-0.2,1.5-0.3,2.3C4.2,386,4,387.5,3.8,389c-0.1,0.8-0.2,1.6-0.3,2.4
		c-0.2,1.4-0.3,2.8-0.4,4.2c-0.1,0.8-0.2,1.5-0.2,2.3c-0.1,1.4-0.3,2.7-0.4,4.1c-0.1,0.7-0.1,1.4-0.2,2.1c-0.1,1.6-0.3,3.2-0.4,4.8
		c-0.1,0.7-0.1,1.5-0.2,2.2c-0.1,1.3-0.2,2.7-0.3,4c0,0.6-0.1,1.2-0.1,1.8c-0.1,1.8-0.2,3.5-0.3,5.3c0,0.7-0.1,1.4-0.1,2.1
		c-0.1,1.3-0.1,2.6-0.2,3.9c0,0.6-0.1,1.3-0.1,1.9c-0.1,1.8-0.1,3.5-0.2,5.3c0,0.7,0,1.3-0.1,2c0,1.3-0.1,2.6-0.1,3.9
		c0,0.6,0,1.3,0,1.9c0,1.8-0.1,3.5-0.1,5.3c0,0.6,0,1.2,0,1.8c0,1.3,0,2.6,0,4c0,0.6,0,1.3,0,1.9c0,1.7,0.1,3.5,0.1,5.2
		c0,0.5,0,1,0,1.5c0,1.4,0.1,2.7,0.1,4c0,0.6,0.1,1.2,0.1,1.9c0.1,1.7,0.2,3.4,0.3,5.1c0,0.4,0.1,0.8,0.1,1.2
		c0.1,1.4,0.2,2.8,0.3,4.2c0,0.6,0.1,1.2,0.1,1.8c0.1,1.5,0.3,3.1,0.4,4.6c0,0.2,0,0.4,0.1,0.6c0.4,3.5,0.8,7,1.3,10.4c0,0,0,0,0,0
		c0.1,1,0.3,1.9,0.5,2.9c0,0.2,0.1,0.3,0.1,0.5c0.1,0.9,0.3,1.7,0.5,2.6c0,0.3,0.1,0.5,0.1,0.8c0.1,0.8,0.3,1.6,0.5,2.3
		c0.1,0.3,0.1,0.7,0.2,1c0.1,0.7,0.3,1.4,0.5,2.1c0.1,0.4,0.2,0.8,0.2,1.1c0.1,0.7,0.3,1.3,0.5,2c0.1,0.4,0.2,0.8,0.3,1.2
		c0.2,0.6,0.3,1.2,0.5,1.9c0.1,0.4,0.2,0.9,0.3,1.3c0.2,0.6,0.3,1.2,0.5,1.8c0.1,0.5,0.2,0.9,0.4,1.4c0.2,0.6,0.3,1.1,0.5,1.6
		c0.1,0.5,0.3,1,0.4,1.4c0.2,0.5,0.3,1,0.5,1.6c0.2,0.5,0.3,1,0.5,1.5c0.2,0.5,0.3,1,0.5,1.5c0.2,0.5,0.3,1,0.5,1.5
		c0.2,0.5,0.3,0.9,0.5,1.4c0.2,0.5,0.4,1,0.5,1.5c0.2,0.4,0.3,0.9,0.5,1.3c0.2,0.5,0.4,1,0.6,1.6c0.2,0.4,0.3,0.8,0.5,1.2
		c0.2,0.5,0.4,1.1,0.6,1.6c0.2,0.4,0.3,0.8,0.5,1.2c0.2,0.5,0.5,1.1,0.7,1.6c0.2,0.4,0.3,0.7,0.5,1.1c0.2,0.5,0.5,1.1,0.7,1.6
		c0.2,0.3,0.3,0.7,0.5,1c0.3,0.5,0.5,1.1,0.8,1.6c0.2,0.3,0.3,0.6,0.5,0.9c0.3,0.5,0.6,1.1,0.8,1.6c0.2,0.3,0.3,0.6,0.5,0.9
		c0.3,0.6,0.6,1.1,0.9,1.6c0.2,0.3,0.3,0.5,0.5,0.8c0.3,0.6,0.6,1.1,0.9,1.6c0.1,0.3,0.3,0.5,0.4,0.8c0.3,0.6,0.7,1.1,1,1.6
		c0.1,0.2,0.3,0.5,0.4,0.7c0.3,0.6,0.7,1.1,1.1,1.7c0.1,0.2,0.3,0.4,0.4,0.6c0.4,0.6,0.7,1.1,1.1,1.7c0.1,0.2,0.3,0.4,0.4,0.6
		c0.4,0.6,0.8,1.1,1.2,1.6c0.1,0.2,0.3,0.4,0.4,0.5c0.4,0.6,0.8,1.1,1.2,1.6c0.1,0.2,0.2,0.3,0.4,0.5c0.4,0.6,0.9,1.1,1.3,1.6
		c0.1,0.1,0.2,0.3,0.3,0.4c0.5,0.6,0.9,1.1,1.4,1.6c0.1,0.1,0.2,0.2,0.3,0.4c0.5,0.6,1,1.1,1.4,1.6c0.1,0.1,0.2,0.2,0.3,0.3
		c0.5,0.5,1,1.1,1.5,1.6c0.1,0.1,0.2,0.2,0.2,0.2c0.5,0.5,1.1,1.1,1.6,1.6c0,0,0.1,0.1,0.1,0.1c0,0,0,0,0,0
		c18.6,18.1,43.4,25.9,72.6,20.7c62.2-11.2,76.5-80.9,108.2-104.6c1.1,1.3,2.3,2.5,3.5,3.7c33.6,33.6,89.1,32.7,123.9-2.1
		c8.9-8.9,15.5-19.1,20-30c13.9-0.8,25.3-1.2,32-1.2c6.7,0,18,0.3,32,1.2c4.5,10.9,11.1,21.1,20,30c34.8,34.8,90.3,35.7,123.9,2.1
		c1.2-1.2,2.4-2.5,3.5-3.7c31.7,23.7,46,93.4,108.2,104.6c29.2,5.2,53.9-2.5,72.6-20.7l0,0c0,0,0,0,0,0c0.6-0.6,1.2-1.2,1.8-1.8
		c0,0,0,0,0.1-0.1C760.9,572.1,761.4,571.5,762,570.9z"/>
	<g>
		<path class="st1" d="M166.5,282.8c5.2-0.8,10.4-1.1,15.7-1.1c10.1,0,17,2.1,22,6.2c5.2,4.2,8.4,10.6,8.4,19.8
			c0,9.6-3.3,16.8-8.4,21.4c-5.4,4.9-13.9,7.4-24.4,7.4c-4.4,0-8.9-0.2-13.3-0.7L166.5,282.8L166.5,282.8z M176.4,328.5
			c1.8,0.2,3.6,0.2,5.4,0.2c12.8,0.1,20.4-7,20.4-20.6c0.1-11.9-6.8-18.7-19.1-18.7c-2.2-0.1-4.5,0.1-6.7,0.6L176.4,328.5
			L176.4,328.5z"/>
		<path class="st1" d="M231.5,286.2c0,2.9-2.3,5.3-5.1,5.3c-0.2,0-0.3,0-0.5,0c-2.8,0.2-5.2-2-5.4-4.8c0-0.2,0-0.3,0-0.5
			c0-3,2.5-5.5,5.5-5.5S231.5,283.2,231.5,286.2z M221,336v-39h9.9v39H221z"/>
		<path class="st1" d="M241,327c3.1,1.7,6.5,2.7,10,2.8c4.3,0,6.2-1.8,6.2-4.3s-1.6-4-6.4-5.7c-7.6-2.6-10.8-6.8-10.7-11.4
			c0-6.9,5.7-12.2,14.7-12.2c3.6-0.1,7.1,0.7,10.3,2.3l-1.9,7c-2.5-1.4-5.3-2.2-8.2-2.2c-3.5,0-5.4,1.7-5.4,4.1s1.8,3.7,6.8,5.4
			c7,2.6,10.3,6.2,10.4,11.9c0,7-5.5,12.2-15.8,12.2c-4.1,0.1-8.2-0.8-11.8-2.7L241,327z"/>
		<path class="st1" d="M303.5,334.8c-3.5,1.4-7.2,2.1-11,2c-12.2,0-20.1-7.8-20.1-19.8c0-11.7,8-20.8,21.7-20.8
			c3.3,0,6.5,0.6,9.5,1.8l-1.8,7.4c-2.3-1-4.9-1.5-7.4-1.5c-7.5,0-12,5.5-11.9,12.6c0,8,5.2,12.6,11.9,12.6c2.7,0,5.3-0.5,7.8-1.5
			L303.5,334.8z"/>
		<path class="st1" d="M347.1,316.2c0,14.3-10.1,20.7-20,20.7c-11,0-19.5-7.6-19.5-20.1c0-12.8,8.4-20.6,20.2-20.6
			C339.3,296.2,347.1,304.3,347.1,316.2z M317.7,316.6c0,7.5,3.7,13.2,9.7,13.2c5.6,0,9.5-5.5,9.5-13.4c0-6.1-2.7-13-9.4-13
			C320.5,303.4,317.7,310.1,317.7,316.6z"/>
		<path class="st1" d="M355.2,308.6c0-4.5-0.1-8.2-0.3-11.6h8.6l0.5,5.8h0.2c2.6-4.3,7.4-6.8,12.4-6.7c6.8,0,13.8,4.4,13.8,16.7V336
			h-9.8v-22c0-5.6-2.1-9.8-7.4-9.8c-3.5,0.1-6.6,2.4-7.7,5.8c-0.3,1-0.4,2.1-0.4,3.2V336h-9.9L355.2,308.6L355.2,308.6z"/>
		<path class="st1" d="M400.9,308.6c0-4.5-0.1-8.2-0.3-11.6h8.6l0.5,5.8h0.2c2.6-4.3,7.4-6.8,12.4-6.7c6.8,0,13.8,4.4,13.8,16.7V336
			h-9.8v-22c0-5.6-2.1-9.8-7.4-9.8c-3.5,0.1-6.6,2.4-7.7,5.8c-0.3,1-0.4,2.1-0.4,3.2V336h-9.9V308.6z"/>
		<path class="st1" d="M453.6,319.3c0.2,7,5.8,10.1,12,10.1c3.7,0.1,7.4-0.5,10.8-1.8l1.4,6.8c-4.3,1.7-9,2.5-13.6,2.4
			c-12.6,0-20.1-7.8-20.1-19.7c0-10.8,6.6-21,19-21c12.6,0,16.8,10.4,16.8,19c0,1.4-0.1,2.8-0.3,4.2H453.6z M470.7,312.4
			c0.1-3.6-1.5-9.5-8.1-9.5c-6.1,0-8.6,5.5-9,9.5H470.7z"/>
		<path class="st1" d="M516.6,334.8c-3.5,1.4-7.2,2.1-11,2c-12.2,0-20.1-7.8-20.1-19.8c0-11.7,8-20.8,21.7-20.8
			c3.3,0,6.5,0.6,9.5,1.8l-1.8,7.4c-2.3-1-4.9-1.5-7.4-1.5c-7.5,0-12,5.5-11.9,12.6c0,8,5.2,12.6,11.9,12.6c2.7,0,5.3-0.5,7.8-1.5
			L516.6,334.8z"/>
		<path class="st1" d="M536.3,285.9V297h9.4v7.4h-9.4v17.2c0,4.7,1.3,7.2,5,7.2c1.3,0,2.6-0.1,3.8-0.5l0.2,7.5
			c-2.3,0.8-4.7,1.1-7.1,1c-3.2,0.1-6.2-1-8.5-3.2c-2.1-2.2-3-5.8-3-10.9v-18.3h-5.6V297h5.6v-8.8L536.3,285.9z"/>
		<path class="st1" d="M559.6,319.3c0.2,7,5.8,10.1,12,10.1c3.7,0.1,7.4-0.5,10.8-1.8l1.4,6.8c-4.3,1.7-9,2.5-13.6,2.4
			c-12.6,0-20.1-7.8-20.1-19.7c0-10.8,6.6-21,19-21c12.6,0,16.8,10.4,16.8,19c0,1.4-0.1,2.8-0.3,4.2H559.6z M576.7,312.4
			c0.1-3.6-1.5-9.5-8.1-9.5c-6.1,0-8.6,5.5-9,9.5H576.7z"/>
		<path class="st1" d="M629.9,279.2V325c0,4,0.2,8.3,0.3,11h-8.8l-0.4-6.2h-0.2c-2.3,4.3-7,7-12.7,7c-9.3,0-16.6-7.9-16.6-19.9
			c-0.1-13,8.1-20.8,17.4-20.8c5.4,0,9.2,2.2,11,5.1h0.2v-22.1h9.8V279.2z M620,313.3c0-0.9-0.1-1.7-0.2-2.6c-0.8-4.1-4.4-7-8.5-7
			c-6.3,0-9.8,5.6-9.8,12.9c0,7.1,3.5,12.3,9.8,12.3c4.1,0,7.7-2.9,8.5-7c0.2-1,0.3-1.9,0.3-2.9L620,313.3L620,313.3z"/>
	</g>
</g>
</svg>
