<?xml version="1.0" encoding="utf-8"?>
<!-- Generator: Adobe Illustrator 25.4.1, SVG Export Plug-In . SVG Version: 6.00 Build 0)  -->
<svg version="1.1" id="Capa_1" xmlns="http://www.w3.org/2000/svg" xmlns:xlink="http://www.w3.org/1999/xlink" x="0px" y="0px"
	 width="65.2px" height="39px" viewBox="0 0 65.2 39" style="enable-background:new 0 0 65.2 39;" xml:space="preserve">
<style type="text/css">
	.st0{fill:#E6E6E6;}
	.st1{fill:#ADACAC;}
</style>
<g>
	<path class="st0" d="M45.7,39l19.5-19.5L45.7,0c-0.8,0.8-1.9,1.3-3.1,1.3h-37c-1.8,0-3.3,1.2-3.8,3C0.6,9.1,0,14.2,0,19.5
		c0,5.3,0.6,10.4,1.8,15.3c0.4,1.7,2,3,3.8,3h37C43.8,37.7,44.9,38.2,45.7,39z"/>
	<path class="st1" d="M1.8,20.4l5.1,9.4c0.2,0.4,0.9,0.3,0.9-0.2V9.5c0-0.5-0.6-0.6-0.9-0.2l-5.1,9.4C1.5,19.2,1.5,19.8,1.8,20.4z"
		/>
</g>
</svg>
