<?xml version="1.0" encoding="utf-8"?>
<!-- Generator: Adobe Illustrator 25.4.1, SVG Export Plug-In . SVG Version: 6.00 Build 0)  -->
<svg version="1.1" id="Capa_1" xmlns="http://www.w3.org/2000/svg" xmlns:xlink="http://www.w3.org/1999/xlink" x="0px" y="0px"
	 width="166.6px" height="98.1px" viewBox="0 0 166.6 98.1" style="enable-background:new 0 0 166.6 98.1;" xml:space="preserve">
<style type="text/css">
	.st0{fill:#E6E6E6;}
	.st1{fill:#ADACAC;}
</style>
<g>
	<path class="st0" d="M31.2,3.5c6.2-1.6,11.9-2.6,15.8-3c4.8-0.5,12-1.5,18.3,2C74.2,7.5,75,29.7,75,29.7v68.3H0c0,0,2.8-52,8-70
		C12.6,12,19.6,6.6,31.2,3.5z"/>
	<path class="st1" d="M66.8,53.4c-0.3-4.6-1.7-13.8-7.4-16.9c-3.1-1.8-8.3-1.4-11-1.2c-4.8,0.3-13.3,1.5-17.8,2.9
		c-4.6,1.3-10.2,2.5-13.6,9l0,0c-3.3,7.6-6.1,27.7-7.1,36c-0.2,1.9,1.2,3.6,3.2,3.6H66c1.9,0,3.3-1.6,3.2-3.4L66.8,53.4z"/>
	<g>
		<path class="st0" d="M33.2,73.4h2.3v8.2h4v1.9h-6.3V73.4z"/>
		<path class="st0" d="M41.3,75.3h-2.7v-1.9h7.8v1.9h-2.8v8.2h-2.3V75.3z"/>
	</g>
</g>
<g>
	<path class="st0" d="M135.3,3.5c-6.2-1.6-11.9-2.6-15.8-3c-4.8-0.5-12-1.5-18.3,2c-8.8,4.9-9.6,27.2-9.6,27.2v68.3h75
		c0,0-2.8-52-8-70C154,12,147,6.6,135.3,3.5z"/>
	<path class="st1" d="M99.8,53.4c0.3-4.6,1.7-13.8,7.4-16.9c3.1-1.8,8.3-1.4,11-1.2c4.8,0.3,13.3,1.5,17.8,2.9
		c4.6,1.3,10.2,2.5,13.6,9l0,0c3.3,7.6,6.1,27.7,7.1,36c0.2,1.9-1.2,3.6-3.2,3.6h-53.1c-1.9,0-3.3-1.6-3.2-3.4L99.8,53.4z"/>
	<g>
		<path class="st0" d="M119.6,73.5c0.7-0.1,1.8-0.2,3-0.2c1.5,0,2.6,0.2,3.3,0.8c0.6,0.5,0.9,1.2,0.9,2.1c0,1.3-0.9,2.2-1.8,2.5v0
			c0.7,0.3,1.1,1,1.4,1.9c0.3,1.1,0.6,2.5,0.8,2.9h-2.3c-0.2-0.3-0.4-1.1-0.7-2.4c-0.3-1.3-0.7-1.6-1.6-1.6h-0.7v4h-2.3V73.5z
			 M121.9,77.8h0.9c1.1,0,1.8-0.6,1.8-1.5c0-0.9-0.6-1.4-1.7-1.4c-0.6,0-0.9,0-1,0.1V77.8z"/>
		<path class="st0" d="M130.5,75.3h-2.7v-1.9h7.8v1.9h-2.8v8.2h-2.3V75.3z"/>
	</g>
</g>
<g>
</g>
<g>
</g>
<g>
</g>
<g>
</g>
<g>
</g>
<g>
</g>
<g>
</g>
<g>
</g>
<g>
</g>
<g>
</g>
<g>
</g>
<g>
</g>
<g>
</g>
<g>
</g>
<g>
</g>
</svg>
